<?xml version="1.0" encoding="utf-8"?>
<!-- Generator: Adobe Illustrator 26.0.0, SVG Export Plug-In . SVG Version: 6.00 Build 0)  -->
<svg version="1.1" id="Layer_1" xmlns="http://www.w3.org/2000/svg" xmlns:xlink="http://www.w3.org/1999/xlink" x="0px" y="0px"
	 viewBox="0 0 512 512" style="enable-background:new 0 0 512 512;" xml:space="preserve">
<style type="text/css">
	.st0{fill:none;stroke:#000000;stroke-width:30;stroke-linejoin:round;stroke-miterlimit:10;}
</style>
<path class="st0" d="M437.4,192.5v108.8c0,30.3-22.5,54.9-50.2,54.9l-262.5,0c-27.7,0-50.2-24.6-50.2-54.9V192.5
	c0-30.4,22.6-55.1,50.4-55.1l262,0C414.8,137.4,437.4,162.1,437.4,192.5z"/>
<path class="st0" d="M281.8,252.8l137.1,91"/>
<path class="st0" d="M93.1,343.8l137.1-91"/>
<path class="st0" d="M93.1,343.8"/>
<path class="st0" d="M418,149.1l-135.9,98.2c-16.1,11.6-36.1,11.6-52.2,0L93.7,148.9"/>
<path class="st0" d="M119.8,137.9c4.4-25.5,24.9-44.9,49.5-44.9l262,0c27.8,0,50.4,24.7,50.4,55.1V257c0,28.1-19.4,51.3-44.3,54.5"
	/>
<path class="st0" d="M463.2,299.5"/>
<path class="st0" d="M326.1,208.5"/>
<path class="st0" d="M274.5,208.5"/>
<path class="st0" d="M137.5,299.5"/>
<path class="st0" d="M137.5,299.5"/>
<path class="st0" d="M138,104.6"/>
<path class="st0" d="M183.4,137.4"/>
<path class="st0" d="M183.4,137.4"/>
<line class="st0" x1="462.3" y1="104.8" x2="409.3" y2="143.1"/>
</svg>
