<?xml version="1.0" encoding="utf-8"?>
<!-- Generator: Adobe Illustrator 26.0.0, SVG Export Plug-In . SVG Version: 6.00 Build 0)  -->
<svg version="1.1" id="Layer_1" xmlns="http://www.w3.org/2000/svg" xmlns:xlink="http://www.w3.org/1999/xlink" x="0px" y="0px"
	 viewBox="0 0 512 512" style="enable-background:new 0 0 512 512;" xml:space="preserve">
<style type="text/css">
	.st0{fill:none;stroke:#000000;stroke-width:30;stroke-linecap:round;stroke-linejoin:round;stroke-miterlimit:10;}
</style>
<path class="st0" d="M165.9,210H90.1c-27.4,0-49.6-22.2-49.6-49.6v-0.7c0-27.4,22.2-49.6,49.6-49.6h75.7c27.4,0,49.6,22.2,49.6,49.6
	v0.7C215.5,187.8,193.3,210,165.9,210z"/>
<path class="st0" d="M421.9,210h-75.7c-27.4,0-49.6-22.2-49.6-49.6v-0.7c0-27.4,22.2-49.6,49.6-49.6h75.7
	c27.4,0,49.6,22.2,49.6,49.6v0.7C471.5,187.8,449.3,210,421.9,210z"/>
<path class="st0" d="M165.9,402H90.1c-27.4,0-49.6-22.2-49.6-49.6v-0.7c0-27.4,22.2-49.6,49.6-49.6h75.7c27.4,0,49.6,22.2,49.6,49.6
	v0.7C215.5,379.8,193.3,402,165.9,402z"/>
<path class="st0" d="M421.9,402h-75.7c-27.4,0-49.6-22.2-49.6-49.6v-0.7c0-27.4,22.2-49.6,49.6-49.6h75.7
	c27.4,0,49.6,22.2,49.6,49.6v0.7C471.5,379.8,449.3,402,421.9,402z"/>
</svg>
