<?xml version="1.0" encoding="utf-8"?>
<!-- Generator: Adobe Illustrator 26.0.0, SVG Export Plug-In . SVG Version: 6.00 Build 0)  -->
<svg version="1.1" id="Layer_1" xmlns="http://www.w3.org/2000/svg" xmlns:xlink="http://www.w3.org/1999/xlink" x="0px" y="0px"
	 viewBox="0 0 512 512" style="enable-background:new 0 0 512 512;" xml:space="preserve">
<style type="text/css">
	.st0{fill:none;stroke:#000000;stroke-width:30;stroke-linejoin:round;stroke-miterlimit:10;}
</style>
<path class="st0" d="M111.2,248l94.4,35.9c31.8,12.1,69.2,12.1,101,0l94.3-35.8c48.8-18.5,48.8-71.5,0-90L306,122
	c-31.5-12-68.5-12-100,0l-94.9,36.1C62.4,176.6,62.4,229.5,111.2,248z"/>
<path class="st0" d="M74.6,203v149.8c0,27.7,22.5,50.2,50.2,50.2l262.5,0c27.7,0,50.2-22.5,50.2-50.2V203"/>
<path class="st0" d="M93.1,391.8l137.1-83.2c15.8-9.6,35.7-9.6,51.6,0l137.1,83.2"/>
<path class="st0" d="M93.1,391.8"/>
<polyline class="st0" points="118.5,250.8 118.5,149.2 393.5,149.2 393.5,250.8 "/>
</svg>
