<?xml version="1.0" encoding="utf-8"?>
<!-- Generator: Adobe Illustrator 26.0.0, SVG Export Plug-In . SVG Version: 6.00 Build 0)  -->
<svg version="1.1" id="Layer_1" xmlns="http://www.w3.org/2000/svg" xmlns:xlink="http://www.w3.org/1999/xlink" x="0px" y="0px"
	 viewBox="0 0 512 512" style="enable-background:new 0 0 512 512;" xml:space="preserve">
<style type="text/css">
	.st0{fill:none;stroke:#000000;stroke-width:30;stroke-miterlimit:10;}
	.st1{fill:none;stroke:#000000;stroke-width:30;stroke-linecap:round;stroke-miterlimit:10;}
</style>
<circle class="st0" cx="256" cy="256" r="175"/>
<ellipse class="st0" cx="256" cy="256" rx="100" ry="175"/>
<line class="st0" x1="256" y1="331" x2="256" y2="431"/>
<line class="st0" x1="256" y1="81" x2="256" y2="182.3"/>
<path class="st0" d="M121,367.4c32.1-22.2,80.7-36.4,135-36.4c54.3,0,102.9,14.2,135,36.4"/>
<path class="st0" d="M391,145.9c-32.1,22.2-80.7,36.4-135,36.4c-54.3,0-102.9-14.2-135-36.4"/>
<line class="st0" x1="356" y1="256" x2="431" y2="256"/>
<line class="st0" x1="81" y1="256" x2="156" y2="256"/>
<line class="st1" x1="282.5" y1="282.5" x2="229.5" y2="229.5"/>
<line class="st1" x1="283.6" y1="228.4" x2="230.5" y2="281.5"/>
</svg>
