<?xml version="1.0" encoding="utf-8"?>
<!-- Generator: Adobe Illustrator 26.0.0, SVG Export Plug-In . SVG Version: 6.00 Build 0)  -->
<svg version="1.1" id="Layer_1" xmlns="http://www.w3.org/2000/svg" xmlns:xlink="http://www.w3.org/1999/xlink" x="0px" y="0px"
	 viewBox="0 0 512 512" style="enable-background:new 0 0 512 512;" xml:space="preserve">
<style type="text/css">
	.st0{fill:none;stroke:#000000;stroke-width:30;stroke-miterlimit:10;}
	.st1{fill:none;stroke:#000000;stroke-width:30;stroke-linecap:round;stroke-miterlimit:10;}
</style>
<path class="st0" d="M140.98,104.69c6.27-20.46,25.3-35.34,47.82-35.34h100"/>
<path class="st0" d="M288.8,69.35h100c27.61,0,50,22.39,50,50v200c0,22.62-15.02,41.73-35.63,47.91"/>
<path class="st0" d="M395.54,262.61v100c0,27.61-22.39,50-50,50h-200c-27.61,0-50-22.39-50-50v-200c0-27.61,22.39-50,50-50h100"/>
<path class="st0" d="M259.18,112.61h89.16c26.07,0,47.2,21.13,47.2,47.2v87.8"/>
<line class="st1" x1="381.38" y1="126.77" x2="169.25" y2="338.9"/>
</svg>
