<?xml version="1.0" encoding="utf-8"?>
<!-- Generator: Adobe Illustrator 26.0.0, SVG Export Plug-In . SVG Version: 6.00 Build 0)  -->
<svg version="1.1" id="Layer_1" xmlns="http://www.w3.org/2000/svg" xmlns:xlink="http://www.w3.org/1999/xlink" x="0px" y="0px"
	 viewBox="0 0 512 512" style="enable-background:new 0 0 512 512;" xml:space="preserve">
<style type="text/css">
	.st0{fill:none;stroke:#000000;stroke-width:30;stroke-miterlimit:10;}
</style>
<path class="st0" d="M406.1,456H105.9C78.3,456,56,433.7,56,406.1V105.9C56,78.3,78.3,56,105.9,56h258c27.6,0,92.1,87.9,92.1,115.4
	v234.6C456,433.7,433.7,456,406.1,456z"/>
<path class="st0" d="M406.1,456V352.4c0-56-22.2-101.4-49.5-101.4H155.4c-27.3,0-49.5,45.4-49.5,101.4V456"/>
<path class="st0" d="M134.8,56v62c0,32.4,22.4,58.7,50,58.7h100c27.6,0,50-26.3,50-58.7V56"/>
</svg>
