<?xml version="1.0" encoding="utf-8"?>
<!-- Generator: Adobe Illustrator 26.0.0, SVG Export Plug-In . SVG Version: 6.00 Build 0)  -->
<svg version="1.1" id="Layer_1" xmlns="http://www.w3.org/2000/svg" xmlns:xlink="http://www.w3.org/1999/xlink" x="0px" y="0px"
	 viewBox="0 0 512 512" style="enable-background:new 0 0 512 512;" xml:space="preserve">
<style type="text/css">
	.st0{fill:none;stroke:#000000;stroke-width:30;stroke-miterlimit:10;}
</style>
<path class="st0" d="M241.82,134.76c0.83-12.36,2.27-24.82,4.33-37.26c0,0,0.26-0.98,1.21-2.46c0.96-1.48,2.61-3.47,5.48-5.48
	c1.43-1.04,3.17-1.9,5.27-2.78c2.1-0.84,4.57-1.69,7.45-2.16c2.88-0.5,6.18-0.92,9.91-0.81c1.86,0.04,3.85,0.07,5.93,0.31
	c2.08,0.25,4.26,0.58,6.56,1l-1.3-0.23c9.18,1.77,16.13,4.74,21.17,7.97c5.09,3.16,8.27,6.64,10.36,9.53
	c2.05,2.98,2.94,5.57,3.37,7.34c0.42,1.79,0.35,2.82,0.35,2.82c-2.85,12.23-6.34,24.33-10.32,36.05c0,0,26.09,12.98,41.32,36.3
	c5.57-2.76,11.24-5.39,17-7.89c5.76-2.51,11.51-4.83,17.4-7.05c0,0,0.98-0.27,2.76-0.2c1.76,0.09,4.41,0.46,7.49,2
	c1.56,0.76,3.26,1.78,5.1,3.16c1.78,1.4,3.63,3.19,5.58,5.4c1.93,2.22,3.76,4.96,5.69,8.18c1.73,3.3,3.62,7.05,5.03,11.51
	l-0.42-1.25c3.15,8.82,3.84,16.37,3.7,22.32c-0.16,3-0.58,5.62-1.09,7.89c-0.5,2.27-1.32,4.22-2.06,5.84
	c-0.77,1.63-1.58,2.96-2.36,4.04c-0.79,1.08-1.6,1.91-2.28,2.54c-1.36,1.25-2.3,1.71-2.3,1.71c-6.02,1.82-12.05,3.49-18.09,5
	c-6.03,1.51-12.2,2.88-18.29,4.09c0,0,2.61,24.59-10.67,53.89c5.17,3.46,10.29,7.06,15.33,10.8c4.99,3.71,9.92,7.57,14.77,11.56
	c0,0,0.72,0.72,1.55,2.3c0.41,0.79,0.85,1.8,1.23,3.05c0.36,1.24,0.63,2.7,0.75,4.43c0.12,1.73,0.11,3.74-0.19,5.99
	c-0.34,2.23-0.94,4.74-1.88,7.53c-0.49,1.38-1.12,2.8-1.82,4.3c-0.72,1.49-1.47,3.1-2.46,4.67c-0.97,1.59-2.06,3.24-3.27,4.95
	c-1.19,1.72-2.65,3.38-4.16,5.16l0.86-1c-2.99,3.58-6.15,6.37-9.02,8.79c-1.49,1.15-2.95,2.18-4.35,3.11
	c-1.4,0.92-2.73,1.77-4.09,2.43c-2.68,1.35-5.1,2.38-7.35,3.03c-2.27,0.63-4.29,0.99-6.08,1.16c-1.77,0.19-3.36,0.11-4.7-0.05
	c-1.34-0.16-2.45-0.42-3.33-0.68c-1.76-0.54-2.62-1.11-2.62-1.11c-2.29-2.14-4.55-4.29-6.78-6.49c-2.24-2.21-4.46-4.44-6.64-6.69
	c-4.36-4.5-8.59-9.08-12.69-13.75c0,0-22.02,15.16-51.97,17.65c-0.83,12.36-2.27,24.82-4.33,37.26c0,0-0.26,0.98-1.21,2.46
	c-0.96,1.48-2.61,3.47-5.48,5.48c-1.43,1.04-3.17,1.9-5.27,2.78c-2.1,0.84-4.57,1.69-7.45,2.16c-2.88,0.5-6.18,0.92-9.91,0.81
	c-1.86-0.04-3.85-0.07-5.93-0.31c-2.08-0.25-4.26-0.58-6.56-1l1.3,0.23c-9.18-1.77-16.13-4.74-21.17-7.97
	c-5.09-3.16-8.27-6.64-10.36-9.53c-2.05-2.98-2.94-5.57-3.37-7.34c-0.42-1.79-0.35-2.82-0.35-2.82
	c2.85-12.23,6.34-24.33,10.32-36.05c0,0-24.2-11.82-41.32-36.3c-5.57,2.76-11.24,5.39-17,7.89c-5.76,2.51-11.51,4.83-17.4,7.05
	c0,0-0.98,0.27-2.76,0.2c-1.76-0.09-4.41-0.46-7.49-2c-1.56-0.76-3.26-1.78-5.1-3.16c-1.78-1.4-3.63-3.19-5.58-5.4
	c-1.93-2.22-3.76-4.96-5.69-8.18c-1.73-3.3-3.62-7.05-5.03-11.51l0.42,1.25c-3.15-8.82-3.84-16.37-3.7-22.32
	c0.16-3,0.58-5.62,1.09-7.89c0.5-2.27,1.32-4.22,2.06-5.84c0.77-1.63,1.58-2.96,2.36-4.04c0.79-1.08,1.6-1.91,2.28-2.54
	c1.36-1.25,2.3-1.71,2.3-1.71c6.02-1.82,12.05-3.49,18.09-5c6.03-1.51,12.2-2.88,18.29-4.09c0,0-1.74-28.24,10.67-53.89
	c-5.17-3.46-10.29-7.06-15.33-10.8c-4.99-3.71-9.92-7.57-14.77-11.56c0,0-0.72-0.72-1.55-2.3c-0.41-0.79-0.85-1.8-1.23-3.05
	c-0.36-1.24-0.63-2.7-0.75-4.43c-0.12-1.73-0.11-3.74,0.19-5.99c0.34-2.23,0.94-4.74,1.88-7.53c0.49-1.38,1.12-2.8,1.82-4.3
	c0.72-1.49,1.47-3.1,2.46-4.67c0.97-1.59,2.06-3.24,3.27-4.95c1.19-1.72,2.65-3.38,4.16-5.16l-0.86,1c2.99-3.58,6.15-6.37,9.02-8.79
	c1.49-1.15,2.95-2.18,4.35-3.11c1.4-0.92,2.73-1.77,4.09-2.43c2.68-1.35,5.1-2.38,7.35-3.03c2.27-0.63,4.29-0.99,6.08-1.16
	c1.77-0.19,3.36-0.11,4.7,0.05c1.34,0.16,2.45,0.42,3.33,0.68c1.76,0.54,2.62,1.11,2.62,1.11c2.29,2.14,4.55,4.3,6.78,6.49
	c2.24,2.21,4.46,4.44,6.64,6.69c4.36,4.5,8.59,9.08,12.69,13.75C189.84,152.42,212.37,137.59,241.82,134.76z"/>
<path class="st0" d="M256,106"/>
<path class="st0" d="M256,106"/>
<path class="st0" d="M301,106"/>
<path class="st0" d="M256,106"/>
<circle class="st0" cx="253.99" cy="257.33" r="87.5"/>
<circle class="st0" cx="253.99" cy="257.33" r="37.5"/>
</svg>
