<?xml version="1.0" encoding="utf-8"?>
<!-- Generator: Adobe Illustrator 26.0.0, SVG Export Plug-In . SVG Version: 6.00 Build 0)  -->
<svg version="1.1" id="Layer_1" xmlns="http://www.w3.org/2000/svg" xmlns:xlink="http://www.w3.org/1999/xlink" x="0px" y="0px"
	 viewBox="0 0 2000 2000" style="enable-background:new 0 0 2000 2000;" xml:space="preserve">
<style type="text/css">
	.st0{fill:#4A4B4B;}
	.st1{fill:#FEF5C8;}
	.st2{fill:#FECD01;}
</style>
<g id="Layer_5">
	<rect class="st0" width="2000" height="2000"/>
</g>
<path class="st1" d="M1249.1,678.5c5.5,4.3,6.5,12.3,2.2,17.7c-4.3,5.4-12.2,6.3-17.8,2c-5.5-4.3-6.5-12.3-2.2-17.7
	S1243.6,674.2,1249.1,678.5L1249.1,678.5z"/>
<path class="st2" d="M1067.7,731.6l-4.5,5.3l-7.5,8.8l-9.7-8.2l-5.3-4.5l-16.4-14l-4-3.4l-15-12.8l-5.2-4.4c-2-2.1-4.5-4.1-7.2-6.1
	c-11.2-8.2-28-15.4-47.5-19.6c-3.1-0.7-6.2-1.2-9.2-1.7c-1.1-0.2-2.2-0.3-3.2-0.5c-11.2-1.5-21.8-1.8-30.8-0.8
	c-0.6,0.1-1.2,0.1-1.9,0.2l-15.9-14.1c3.6-1.5,7.9-2.6,12.6-3.4c13.2-2.2,30.3-1.6,48.4,2.3c1.6,0.3,3.2,0.7,4.8,1.1l-86.5-73.8V660
	c-1.3-0.5-2.7-0.9-4-1.4l0,0c-4.9-1.6-9.7-3.1-14.5-4.4V542.1l18.5,15.8l186.9,159.3l2.2,1.9l7.2,6.2L1067.7,731.6L1067.7,731.6z"/>
<path class="st2" d="M1330.1,726L1330.1,726l-55.1,7.3l-2.9,0.4l6.4-19.5l0.1,0l0,0c0-0.2,0-0.3,0-0.4l0,0l7.2-21.8l23.7,18.1
	L1330.1,726L1330.1,726z"/>
<path class="st1" d="M1381.7,1056.8l-11.5-13.4l-76.5-89.2l-11.5-13.4c-0.3-0.3-0.8-0.4-1.2-0.1l-13.4,11.5l-21.2,18.2
	c-32.6,27.9-73.9,43.3-116.8,43.5c-0.5,0-0.9-0.4-0.8-0.9c0.1-6.4,1.8-12.7,4.8-18.2c3.1-5.7,7.7-10.7,13.3-14.4
	c8-5.2,16.1-11.4,23.9-18.5c20.4-18.6,34.9-39.6,41.3-57.8c0.1-0.1,0.1-0.2,0.2-0.3l6.9-6.3c0.5-0.5,1.4-0.1,1.4,0.6v14.6
	c0,0.5,0.4,0.8,0.8,0.8h16.8c0.5,0,0.8-0.4,0.8-0.8V773c0-0.6-0.6-1-1.2-0.8c-5.4,2.3-11.3,3.9-17.3,4.7c-2.3,0.3-4.7,0.5-7,0.5
	c-0.7,0-1.3,0-1.9,0s-1.3,0-1.9,0h-111.4c-0.7,0-1.1,0.9-0.6,1.4l15.6,17.1l42.1,46.3l8,8.8l8.6,9.5l1.5,1.6l23.3,25.5
	c0.2,0.2,0.3,0.5,0.2,0.8c-4.1,12.9-14.2,38.5-38.5,61.1c-9.4,8.8-19.1,15.2-27.7,20c-12.7,7-20.5,20.3-20.5,34.8v27.2
	c0,0.5,0.4,0.8,0.8,0.8h41.6c7.3,0,10.7,9.1,5.1,13.9l-4,3.4c-0.3,0.2-0.7,0.3-0.9,0.1c-1.9-1.1-4-2-6.2-2.5c-2.3-0.6-4.8-1-7.2-1
	h-44.1c-0.5,0-0.8-0.4-0.8-0.8v-85.1c0-0.2,0.1-0.4,0.2-0.6l9.7-10l2.4-2.5l13.4-13.9c0.1,0,0.1-0.1,0.1-0.2c2-3.5,3.3-6.8,4.2-9.3
	c1.6-4.6,2.2-8.3,2.5-10.5c0.2-1.7,0.4-3.4,0.6-5.1c0.6-7.7,0.1-16-1.6-24.7c-1.1-5.6-2.5-11.4-4.5-17.3
	c-5.5-16.8-14.5-34.5-26.7-51.8c-4.4-6.2-9.2-12.4-14.3-18.5c-3.8-4.5-7.8-8.9-12-13.2c-0.3-0.3-0.3-0.8,0-1.2l27.6-30.5l11.3-12.5
	l37.3-41.2c0.2-0.2,0.4-0.3,0.6-0.3c0.5,0,0.9,0.4,0.8,1c-0.4,1.7-0.7,3.5-0.9,5.2v0l0,0c4.3,32.1,32.4,56.9,66.3,56.9
	c12.9,0,24.9-3.6,35.1-9.8c0.2-0.1,0.3-0.3,0.4-0.5l23-70l3.3-10c0.1-0.2,0.1-0.4,0-0.6c-10.1-23.6-33.9-40.2-61.7-40.2
	c-20.5,0-38.8,9-51.1,23.2l0,0l-69.7,77.1l-11.7,12.9l-23.8,26.3c-0.3,0.3-0.8,0.4-1.2,0.1c-8-7.1-16.2-13.5-24.5-19.2c0,0,0,0,0,0
	c-6.5-4.5-13.1-8.6-19.7-12.1c-1.3-0.7-2.7-1.5-4-2.1c-4.3-2.2-8.6-4.3-12.9-6.1c0,0-0.1,0-0.2-0.1c-1.5-0.6-3-1.2-4.5-1.8
	c-0.5-0.2-1-0.4-1.6-0.6c-2.1-0.8-4.2-1.5-6.2-2.2c-1.7-0.6-3.4-1.1-5.1-1.6c-0.1,0-0.1,0-0.2,0c-8.9-2.6-18.2-3.9-27.5-3.9h-29
	c-0.2,0-0.3,0-0.5-0.2l-48.6-33l-53.1-36.2l-3.7-2.5l-14.7-10l-17-11.5l-29.2-19.9l-18.6-12.7l0,0c0.6,7.8,1.5,15.8,2.7,24.1
	c0.5,3.6,1.1,7.3,1.7,10.9c0.2,1,0.3,2.1,0.5,3.1c1.2,6.8,2.5,13.4,3.9,19.8c6.1,27.8,14.3,51.4,22.7,66.7c0.3,0.6-0.1,1.2-0.7,1.2
	H684c-0.5,0-0.8,0.4-0.8,0.8v2.7c0,0.1,0,0.1,0,0.2c1,4.8,2.4,9.8,4.1,14.7c7.4,21.5,21.2,44.1,40.1,65.9c3.2,3.7,6.7,7.5,10.2,11.1
	c21.6,22.4,48.7,43.7,80,61.8c40,23.1,81.1,37.6,118.2,43.4c0.7,0.1,0.9,0.9,0.5,1.4l-60.7,65.6l-15.5,16.8l-17.7,19.1
	c-0.2,0.2-0.4,0.3-0.6,0.3H659c-0.5,0-0.8,0.4-0.8,0.8v16.8c0,0.5,0.4,0.8,0.8,0.8h28.6c0.3,0,0.6,0.2,0.8,0.5l18.4,39.2l8.5,18
	c0.1,0.3,0.4,0.5,0.8,0.5h53.4c0.7,0,1.1,0.9,0.6,1.4l-33.6,36.3l-15.8,17.1c-0.5,0.5-0.1,1.4,0.6,1.4h196.3c0.3,0,0.6-0.2,0.8-0.5
	l1.4-3.2l47.7-110.2c0.1-0.3,0.4-0.5,0.8-0.5h47.6c0.2,0,0.5-0.1,0.6-0.2l9-9.3c0.3-0.3,0.7-0.3,1-0.1l1.6,1l48.4,28.7l5.7,3.4
	c0.1,0.1,0.3,0.1,0.4,0.1h51.7c0.8,0,1.1,1,0.6,1.5l-10.8,9.2l-13.4,11.5c-0.3,0.3-0.4,0.8-0.1,1.2l11.5,13.4l76.5,89.2l11.5,13.4
	c0.3,0.3,0.8,0.4,1.2,0.1l13.4-11.5l143.8-123.3l13.4-11.5C1382,1057.7,1382,1057.2,1381.7,1056.8L1381.7,1056.8z M1231.4,665.6
	c10.4,0,18.9,8.5,18.9,18.9s-8.5,18.9-18.9,18.9s-18.9-8.5-18.9-18.9S1221,665.6,1231.4,665.6z M759.7,646.7c-1-4.5-2-9.1-3-13.8
	c-0.2-0.7,0.7-1.3,1.3-0.9l19,12.9l23.7,16.1l16.9,11.5l65.9,44.8c0.7,0.5,0.3,1.5-0.5,1.5h-94.6c-0.3,0-0.5-0.1-0.7-0.3
	C777.7,705.6,767.3,679.4,759.7,646.7L759.7,646.7z M746.1,795.7c-17.4-19-30.2-38.6-37.6-57.1c-0.2-0.5,0.2-1.2,0.8-1.2h239.3
	c6.9,0,13.8,0.9,20.5,2.7c0,0,1.6,0.4,4,1.1c2.4,0.7,5.5,1.7,8.6,2.8c10.5,3.9,21.2,9.2,32,16c13.7,8.6,27.2,19.3,40,32.1
	c0.8,0.8,1.5,1.5,2.3,2.3c0.5,0.5,0.1,1.4-0.6,1.4H746.7C746.5,796,746.3,795.9,746.1,795.7L746.1,795.7z M1053.7,815.9l-5.3,5.5
	l-75,77.4l-2.6,2.6c-0.3,0.3-0.9,0.3-1.2,0c-2.7-2.7-5.3-5.4-7.8-8.2c-19.6-22.8-29.5-51-27.5-78c0-0.4,0.4-0.8,0.8-0.8h117.8
	C1053.9,814.5,1054.2,815.4,1053.7,815.9L1053.7,815.9z M827.1,859.6c-22.8-13.2-43.2-28-60.6-43.7c-0.6-0.5-0.2-1.5,0.6-1.5H915
	c0.5,0,0.8,0.4,0.8,0.9c-0.8,17.5,2.7,35.4,10,52.2c0.2,0.4,0.3,0.8,0.5,1.2c4.9,11.1,11.5,21.7,19.5,31.5c0.5,0.6,0,1.5-0.7,1.4
	C909.1,897.2,867.7,883,827.1,859.6L827.1,859.6z M741.9,1080.9c-0.7,0-1.1-0.9-0.6-1.4l35.1-38c0.2-0.2,0.4-0.3,0.6-0.3h46
	c0.7,0,1.1,0.9,0.6,1.4l-36.1,39v-0.7L741.9,1080.9L741.9,1080.9z M885.9,1137.1h-42.1c-0.7,0-1.1-0.8-0.7-1.3l33.1-44.8
	c0.4-0.6,1.3-0.4,1.5,0.3l9,44.8C886.8,1136.7,886.4,1137.1,885.9,1137.1L885.9,1137.1z M946.7,1042.4l-41,94.7l0,0l-13.6-67.7
	l-4.5-22.6c-0.1-0.7-1.1-0.9-1.5-0.3l-13.7,18.6l-53,71.8c-0.2,0.2-0.4,0.3-0.7,0.3h-55.3c-0.7,0-1.1-0.9-0.6-1.4l87.2-94.2
	c0.2-0.2,0.4-0.3,0.6-0.3H946C946.6,1041.3,947,1041.9,946.7,1042.4L946.7,1042.4z M964.5,1001.4L964.5,1001.4l-19.5,21.1
	c-0.2,0.2-0.4,0.3-0.6,0.3h-77.4c-0.1,0-0.2,0-0.3,0.1l-0.8,0.3l-0.2-0.4h0.9c0.1,0,0.2,0,0.3-0.1l0.7-0.3l14-5.6l37.6-15l28.1-11.2
	l12.1-4.8l0,0l14.4-5.8l0,0l0.3-0.8l0.6,0.4l12.3-4.9c0.8-0.3,1.5,0.7,0.9,1.3l-6.8,7.4l-12.8,13.9L964.5,1001.4L964.5,1001.4z
	 M1076.2,1038.3c0,0.7-0.7,1.1-1.3,0.7l-35.1-20.8c-0.5-0.3-0.5-0.9-0.2-1.3l29.3-30.2l6.4-6.6l0.9-0.9L1076.2,1038.3L1076.2,1038.3
	z M1080.9,947.6L1080.9,947.6l-7.1,7.3l-2.9,3l-3.4,3.5l-5.7,5.8l-39.3,40.6l-13.2,13.7l-0.9,1c-0.2,0.2-0.4,0.2-0.6,0.2h-35.9
	c-0.7,0-1.1-0.9-0.6-1.4l9-9.7l4.3-4.7l12.8-13.9l32.9-35.6c0.1-0.1,0.2-0.2,0.3-0.2l8.6-3.4l0,0l1.7-0.7l6.4-2.6l0,0l12.6-5
	l16.6-6.6l0,0c2.5-0.8,5.2-1.8,7.9-3c0.6-0.3,1.2-0.6,1.9-0.9c-1.4,0.3-2.8,0.7-4.3,1c0,0-1.8,0.4-4.3,0.8
	c-5.2,0.9-10.6,1.4-16.1,1.5c-8.9,0.2-18.1-0.6-27.2-2.5l0,0c-13.1-2.7-26.3-7.6-38.8-14.8c0,0-0.1,0-0.1-0.1
	c-3.5-2-6.9-4.2-10.1-6.5c-0.4-0.3-0.5-0.9-0.1-1.3l12-12.4l54.1-55.9l18.5-19.1l6.7-6.9l0,0c14.5,19.7,24.5,40,29.3,58.7
	c1.8,7.1,2.9,13.9,3.2,20.4c0.4,8.7-0.6,16.7-3.1,23.7c0,0.1-0.1,0.2-0.2,0.3l-9.7,10l0,0L1080.9,947.6L1080.9,947.6z
	 M1345.6,1045.3l-51.1-3.9c-0.5,0-0.9,0.3-0.9,0.8l-1.3,16.8c0,0.5,0.3,0.9,0.8,0.9l51.1,3.9c0.8,0.1,1.1,1,0.5,1.5L1223.8,1169
	c-0.6,0.5-1.4,0-1.4-0.7l3.8-50.1c0-0.5-0.3-0.9-0.8-0.9l-16.8-1.3c-0.5,0-0.9,0.3-0.9,0.8l-3.8,50c-0.1,0.8-1,1.1-1.5,0.5
	l-66.1-77.1c-0.3-0.3-0.3-0.9,0.1-1.2l18.5-15.9c0.3-0.2,0.7-0.3,1-0.1l11.2,6.7c0.6,0.4,1,1,1,1.7v22.4c0,0.5,0.4,0.8,0.8,0.8h16.8
	c0.5,0,0.8-0.4,0.8-0.8v-32c0-1.3-0.7-2.5-1.8-3.2l-6.6-3.9l-7-4.1c-0.5-0.3-0.6-1-0.1-1.4l15.2-13l77-66c0.6-0.5,1.4,0,1.4,0.7
	l-7.1,92.4c0,0.5-0.4,0.8-0.9,0.8l-60.1-4.6c-0.5,0-0.9,0.3-0.9,0.8l-1.3,16.8c0,0.5,0.3,0.9,0.8,0.9l60.9,4.7v0.1l17.6,1.3
	c0.5,0,0.9-0.3,0.9-0.8l9.2-120c0.1-0.8,1-1,1.5-0.5l61,71.2C1346.8,1044.5,1346.4,1045.4,1345.6,1045.3L1345.6,1045.3z"/>
</svg>
