<?xml version="1.0" encoding="utf-8"?>
<!-- Generator: Adobe Illustrator 26.0.0, SVG Export Plug-In . SVG Version: 6.00 Build 0)  -->
<svg version="1.1" id="Layer_1" xmlns="http://www.w3.org/2000/svg" xmlns:xlink="http://www.w3.org/1999/xlink" x="0px" y="0px"
	 viewBox="0 0 2000 2000" style="enable-background:new 0 0 2000 2000;" xml:space="preserve">
<style type="text/css">
	.st0{fill:#4A4B4B;}
	.st1{fill:#FEF5C8;}
	.st2{fill:#FECD01;}
	.st3{font-family:'NeueHaasDisplay-XThin';}
	.st4{font-size:336.68px;}
	.st5{letter-spacing:-3;}
	.st6{letter-spacing:-10;}
</style>
<g id="Layer_5">
	<rect class="st0" width="2000" height="2000"/>
</g>
<g id="Layer_4">
	<g>
		<g>
			<path class="st1" d="M606.2,841.6c4.5,3.5,5.3,10,1.8,14.4s-10,5.1-14.4,1.6c-4.5-3.5-5.2-10-1.8-14.4S601.8,838.1,606.2,841.6
				L606.2,841.6z"/>
			<path class="st2" d="M458.6,884.8l-3.7,4.3l-6.1,7.2l-7.9-6.7l-4.3-3.7l-13.3-11.4l-3.2-2.7l-12.2-10.4l-4.2-3.6
				c-1.7-1.7-3.6-3.4-5.9-5c-9.1-6.7-22.8-12.5-38.6-15.9c-2.5-0.5-5-1-7.5-1.4c-0.9-0.1-1.8-0.3-2.6-0.4
				c-9.1-1.2-17.7-1.4-25.1-0.7c-0.5,0.1-1,0.1-1.5,0.2l-12.9-11.5c3-1.2,6.4-2.1,10.3-2.8c10.8-1.8,24.7-1.3,39.4,1.9
				c1.3,0.3,2.6,0.6,3.9,0.9l-70.4-60v63.3c-1.1-0.4-2.2-0.8-3.3-1.1l0,0c-4-1.3-7.9-2.5-11.8-3.6v-91.2l15,12.8l152,129.5l1.8,1.5
				l5.9,5L458.6,884.8L458.6,884.8z"/>
			<path class="st2" d="M672.1,880.2L672.1,880.2l-44.8,6l-2.4,0.3l5.2-15.8h0.1v0c0-0.1,0-0.2,0-0.3l0,0l5.8-17.7l19.2,14.7
				L672.1,880.2L672.1,880.2z"/>
			<path class="st1" d="M714,1149.3l-9.3-10.9l-62.2-72.6l-9.3-10.9c-0.2-0.3-0.7-0.3-1-0.1l-10.9,9.3L604,1079
				c-26.5,22.7-60.1,35.2-95,35.4c-0.4,0-0.7-0.3-0.7-0.7c0.1-5.2,1.5-10.3,3.9-14.8c2.5-4.7,6.2-8.7,10.8-11.7
				c6.5-4.2,13.1-9.3,19.5-15.1c16.6-15.1,28.4-32.2,33.6-47c0-0.1,0.1-0.2,0.2-0.3l5.6-5.1c0.4-0.4,1.1-0.1,1.1,0.5v11.9
				c0,0.4,0.3,0.7,0.7,0.7h13.7c0.4,0,0.7-0.3,0.7-0.7V918.5c0-0.5-0.5-0.8-0.9-0.6c-4.4,1.8-9.2,3.1-14.1,3.8
				c-1.9,0.2-3.8,0.4-5.7,0.5c-0.5,0-1,0-1.6,0s-1.1,0-1.6,0h-90.6c-0.6,0-0.9,0.7-0.5,1.1l12.6,13.9l34.2,37.6l6.5,7.2l7,7.7
				l1.2,1.3l18.9,20.8c0.2,0.2,0.2,0.4,0.1,0.7c-3.3,10.5-11.5,31.3-31.3,49.7c-7.7,7.1-15.5,12.4-22.6,16.3
				c-10.3,5.7-16.7,16.5-16.7,28.3v22.1c0,0.4,0.3,0.7,0.7,0.7h33.9c6,0,8.7,7.4,4.2,11.3l-3.2,2.8c-0.2,0.2-0.5,0.2-0.8,0.1
				c-1.6-0.9-3.3-1.6-5-2.1c-1.9-0.5-3.9-0.8-5.8-0.8h-35.9c-0.4,0-0.7-0.3-0.7-0.7v-69.2c0-0.2,0.1-0.3,0.2-0.5l7.9-8.2l2-2
				l10.9-11.3c0,0,0.1-0.1,0.1-0.2c1.6-2.9,2.7-5.5,3.4-7.6c1.3-3.8,1.8-6.8,2-8.5c0.2-1.4,0.4-2.7,0.5-4.2c0.5-6.3,0-13-1.3-20.1
				c-0.9-4.6-2.1-9.3-3.6-14.1c-4.5-13.7-11.8-28-21.7-42.1c-3.6-5.1-7.5-10.1-11.6-15c-3.1-3.6-6.4-7.2-9.8-10.8
				c-0.2-0.3-0.3-0.7,0-0.9l22.4-24.8l9.2-10.1l30.3-33.5c0.1-0.2,0.3-0.2,0.5-0.2c0.4,0,0.8,0.4,0.7,0.8c-0.3,1.4-0.6,2.8-0.7,4.2
				l0,0v0c3.5,26.1,26.3,46.3,54,46.3c10.5,0,20.3-2.9,28.6-7.9c0.1-0.1,0.2-0.2,0.3-0.4l18.7-56.9l2.7-8.1c0-0.2,0-0.3,0-0.5
				c-8.2-19.2-27.6-32.7-50.2-32.7c-16.7,0-31.5,7.3-41.5,18.9l0,0l-56.7,62.7l-9.5,10.5L448.6,915c-0.2,0.3-0.7,0.3-1,0
				c-6.5-5.8-13.2-11-19.9-15.6c0,0,0,0,0,0c-5.3-3.7-10.7-7-16-9.9c-1.1-0.6-2.2-1.2-3.3-1.7c-3.5-1.8-7-3.5-10.5-5
				c0,0-0.1,0-0.1,0c-1.2-0.5-2.4-1-3.6-1.5c-0.4-0.2-0.9-0.3-1.3-0.5c-1.7-0.7-3.4-1.3-5.1-1.8c-1.4-0.5-2.8-0.9-4.2-1.3
				c0,0-0.1,0-0.1,0c-7.2-2.1-14.8-3.1-22.3-3.1h-23.6c-0.1,0-0.3,0-0.4-0.1l-39.5-26.8l-43.2-29.4l-3-2l-12-8.2l-13.8-9.4
				L202,782.4l-15.1-10.3l0,0c0.5,6.3,1.2,12.9,2.2,19.6c0.4,2.9,0.9,5.9,1.4,8.9c0.1,0.8,0.3,1.7,0.4,2.5c1,5.5,2,10.9,3.1,16.1
				c5,22.6,11.6,41.8,18.5,54.2c0.2,0.5-0.1,1-0.6,1h-65.4c-0.4,0-0.7,0.3-0.7,0.7v2.2c0,0,0,0.1,0,0.2c0.8,3.9,2,7.9,3.4,12
				c6.1,17.5,17.2,35.9,32.6,53.6c2.6,3,5.4,6.1,8.3,9.1c17.6,18.2,39.6,35.5,65,50.2c32.5,18.8,65.9,30.6,96.2,35.3
				c0.5,0.1,0.8,0.7,0.4,1.1l-49.4,53.3l-12.6,13.6l-14.4,15.6c-0.1,0.1-0.3,0.2-0.5,0.2H126.2c-0.4,0-0.7,0.3-0.7,0.7v13.7
				c0,0.4,0.3,0.7,0.7,0.7h23.2c0.3,0,0.5,0.2,0.6,0.4l14.9,31.8l6.9,14.7c0.1,0.2,0.4,0.4,0.6,0.4h43.4c0.6,0,0.9,0.7,0.5,1.1
				l-27.4,29.6l-12.9,13.9c-0.4,0.4-0.1,1.1,0.5,1.1h159.7c0.3,0,0.5-0.2,0.6-0.4l1.1-2.6l38.8-89.6c0.1-0.2,0.4-0.4,0.6-0.4h38.7
				c0.2,0,0.4-0.1,0.5-0.2l7.3-7.5c0.2-0.2,0.6-0.3,0.8-0.1l1.3,0.8l39.3,23.3l4.7,2.8c0.1,0.1,0.2,0.1,0.4,0.1h42.1
				c0.6,0,0.9,0.8,0.4,1.2l-8.8,7.5l-10.9,9.3c-0.3,0.2-0.3,0.7-0.1,1l9.4,10.9l62.2,72.6l9.3,10.9c0.2,0.3,0.7,0.3,1,0.1l10.9-9.3
				l117-100.3l10.9-9.3C714.3,1150,714.3,1149.5,714,1149.3L714,1149.3z M591.8,831.1c8.5,0,15.4,6.9,15.4,15.4s-6.9,15.4-15.4,15.4
				s-15.4-6.9-15.4-15.4S583.3,831.1,591.8,831.1z M208.1,815.7c-0.8-3.6-1.6-7.4-2.4-11.2c-0.1-0.6,0.6-1,1.1-0.7l15.4,10.5
				l19.2,13.1l13.8,9.4l53.6,36.5c0.6,0.4,0.3,1.2-0.4,1.2h-77c-0.2,0-0.4-0.1-0.5-0.3C222.7,863.7,214.3,842.3,208.1,815.7
				L208.1,815.7z M197.1,936.9c-14.1-15.5-24.6-31.4-30.6-46.4c-0.2-0.5,0.2-0.9,0.6-0.9h194.6c5.6,0,11.2,0.8,16.7,2.2
				c0,0,1.3,0.3,3.2,0.9s4.5,1.4,7,2.3c8.5,3.2,17.3,7.5,26,13c11.1,7,22.2,15.7,32.6,26.1c0.6,0.6,1.2,1.2,1.8,1.9
				c0.4,0.4,0.1,1.2-0.5,1.2h-251C197.4,937.1,197.2,937.1,197.1,936.9L197.1,936.9z M447.3,953.3l-4.3,4.5l-61,63l-2.1,2.2
				c-0.3,0.3-0.7,0.3-1,0c-2.2-2.2-4.3-4.4-6.3-6.7c-15.9-18.5-24-41.5-22.3-63.4c0-0.4,0.3-0.6,0.7-0.6h95.8
				C447.4,952.2,447.7,952.9,447.3,953.3L447.3,953.3z M263,988.9c-18.5-10.7-35.1-22.8-49.3-35.5c-0.5-0.4-0.2-1.2,0.5-1.2h120.2
				c0.4,0,0.7,0.3,0.7,0.7c-0.6,14.2,2.2,28.8,8.2,42.5c0.1,0.3,0.3,0.7,0.4,1c4,9,9.3,17.6,15.9,25.6c0.4,0.5,0,1.2-0.6,1.1
				C329.7,1019.4,296,1007.9,263,988.9L263,988.9z M193.6,1168.9c-0.6,0-0.9-0.7-0.5-1.1l28.6-30.9c0.1-0.1,0.3-0.2,0.5-0.2h37.4
				c0.6,0,0.9,0.7,0.5,1.1l-29.3,31.7v-0.6H193.6L193.6,1168.9z M310.7,1214.6h-34.2c-0.6,0-0.9-0.6-0.5-1.1l26.9-36.4
				c0.4-0.5,1.1-0.3,1.2,0.3l7.3,36.4C311.5,1214.2,311.2,1214.6,310.7,1214.6L310.7,1214.6z M360.2,1137.6l-33.3,77l0,0l-11-55.1
				l-3.7-18.4c-0.1-0.6-0.9-0.7-1.2-0.3l-11.1,15.1l-43.1,58.4c-0.1,0.2-0.3,0.3-0.5,0.3h-45c-0.6,0-0.9-0.7-0.5-1.1l70.9-76.6
				c0.1-0.1,0.3-0.2,0.5-0.2h77.6C360.1,1136.6,360.5,1137.1,360.2,1137.6L360.2,1137.6z M374.7,1104.2L374.7,1104.2l-15.9,17.2
				c-0.1,0.1-0.3,0.2-0.5,0.2h-63c-0.1,0-0.2,0-0.2,0.1l-0.6,0.2l-0.1-0.3h0.7c0.1,0,0.2,0,0.3-0.1l0.6-0.2l11.4-4.6l30.5-12.2
				l22.9-9.2l9.8-3.9l0,0l11.7-4.7l0,0l0.3-0.6l0.5,0.3l10-4c0.7-0.3,1.2,0.6,0.8,1.1l-5.6,6l-10.5,11.3L374.7,1104.2L374.7,1104.2z
				 M465.5,1134.2c0,0.5-0.6,0.8-1,0.6l-28.6-16.9c-0.4-0.2-0.5-0.7-0.1-1.1l23.8-24.6l5.2-5.4l0.7-0.8L465.5,1134.2L465.5,1134.2z
				 M469.4,1060.5L469.4,1060.5l-5.8,5.9l-2.4,2.5l-2.8,2.8l-4.6,4.8l-32,33l-10.8,11.1l-0.8,0.8c-0.1,0.1-0.3,0.2-0.5,0.2h-29.2
				c-0.6,0-0.9-0.7-0.5-1.1l7.3-7.9l3.5-3.8l10.5-11.3l26.8-29c0.1-0.1,0.2-0.1,0.2-0.2l7-2.8l0,0l1.4-0.6l5.2-2.1l0,0l10.2-4.1
				l13.5-5.4l0,0c2.1-0.7,4.2-1.5,6.4-2.5c0.5-0.2,1-0.5,1.5-0.7c-1.2,0.3-2.3,0.5-3.5,0.8c0,0-1.5,0.3-3.5,0.7
				c-4.3,0.7-8.6,1.1-13.1,1.2c-7.3,0.2-14.7-0.5-22.1-2l0,0c-10.7-2.2-21.4-6.2-31.6-12.1c0,0-0.1,0-0.1-0.1
				c-2.8-1.6-5.6-3.4-8.2-5.2c-0.3-0.2-0.4-0.7-0.1-1l9.8-10.1l44-45.5l15-15.5l5.4-5.6l0,0c11.8,16,20,32.5,23.8,47.7
				c1.5,5.8,2.3,11.3,2.6,16.6c0.3,7-0.5,13.5-2.5,19.3c0,0.1-0.1,0.2-0.2,0.3l-7.9,8.2l0,0L469.4,1060.5L469.4,1060.5z M684.7,1140
				l-41.5-3.2c-0.4,0-0.7,0.3-0.7,0.6l-1,13.6c0,0.4,0.3,0.7,0.6,0.7l41.5,3.2c0.6,0,0.9,0.8,0.4,1.2l-98.4,84.4
				c-0.5,0.4-1.2,0-1.1-0.6l3.1-40.7c0-0.4-0.3-0.7-0.6-0.7l-13.6-1.1c-0.4,0-0.7,0.3-0.7,0.6l-3.1,40.6c0,0.6-0.8,0.9-1.2,0.4
				l-53.8-62.7c-0.2-0.3-0.2-0.7,0.1-1l15-12.9c0.2-0.2,0.5-0.2,0.8-0.1l9.1,5.4c0.5,0.3,0.8,0.8,0.8,1.4v18.3
				c0,0.4,0.3,0.7,0.7,0.7h13.7c0.4,0,0.7-0.3,0.7-0.7v-26c0-1.1-0.6-2-1.5-2.6l-5.4-3.2l-5.7-3.4c-0.4-0.2-0.5-0.8-0.1-1.1
				l12.3-10.6l62.7-53.7c0.5-0.4,1.2,0,1.1,0.6l-5.8,75.1c0,0.4-0.4,0.7-0.7,0.6l-48.8-3.8c-0.4,0-0.7,0.3-0.7,0.6l-1.1,13.6
				c0,0.4,0.3,0.7,0.6,0.7l49.5,3.8v0.1l14.3,1.1c0.4,0,0.7-0.3,0.7-0.6l7.5-97.6c0-0.6,0.8-0.9,1.2-0.4l49.6,57.9
				C685.7,1139.3,685.3,1140,684.7,1140L684.7,1140z"/>
		</g>
		<text transform="matrix(1 0 0 1 766.79 1110.01)" class="st2 st3 st4">gu</text>
		<text transform="matrix(1 0 0 1 1102.46 1110.01)" class="st2 st3 st4 st5">v</text>
		<text transform="matrix(1 0 0 1 1243.53 1110.01)" class="st2 st3 st4">e</text>
		<text transform="matrix(1 0 0 1 1411.53 1110.01)" class="st2 st3 st4 st6">r</text>
		<text transform="matrix(1 0 0 1 1500.4099 1110.01)" class="st2 st3 st4">cin</text>
	</g>
</g>
</svg>
