<?xml version="1.0" encoding="utf-8"?>
<!-- Generator: Adobe Illustrator 26.0.0, SVG Export Plug-In . SVG Version: 6.00 Build 0)  -->
<svg version="1.1" id="Layer_1" xmlns="http://www.w3.org/2000/svg" xmlns:xlink="http://www.w3.org/1999/xlink" x="0px" y="0px"
	 viewBox="0 0 512 512" style="enable-background:new 0 0 512 512;" xml:space="preserve">
<style type="text/css">
	.st0{fill:none;stroke:#000000;stroke-width:30;stroke-miterlimit:10;}
</style>
<path class="st0" d="M118.1,355.5h-11.6c-27.9,0-50.4-22.6-50.4-50.4V206c0-27.9,22.6-50.4,50.4-50.4h299.1
	c27.9,0,50.4,22.6,50.4,50.4v99.1c0,27.9-22.6,50.4-50.4,50.4h-11.6"/>
<path class="st0" d="M343.7,426H168.3c-27.7,0-50.2-22.5-50.2-50.2v-99.9c0-27.7,22.5-50.2,50.2-50.2h175.4
	c27.7,0,50.2,22.5,50.2,50.2v99.9C393.9,403.5,371.5,426,343.7,426z"/>
<circle class="st0" cx="410.6" cy="214" r="5"/>
<path class="st0" d="M118.1,155.5v-12.1c0-27.7,22.5-50.2,50.2-50.2h175.4c27.7,0,50.2,22.5,50.2,50.2v12.1"/>
</svg>
