<?xml version="1.0" encoding="utf-8"?>
<!-- Generator: Adobe Illustrator 26.0.0, SVG Export Plug-In . SVG Version: 6.00 Build 0)  -->
<svg version="1.1" id="Layer_1" xmlns="http://www.w3.org/2000/svg" xmlns:xlink="http://www.w3.org/1999/xlink" x="0px" y="0px"
	 viewBox="0 0 512 512" style="enable-background:new 0 0 512 512;" xml:space="preserve">
<style type="text/css">
	.st0{fill:none;stroke:#000000;stroke-width:30;stroke-miterlimit:10;}
	.st1{fill:none;stroke:#000000;stroke-width:30;stroke-linecap:round;stroke-miterlimit:10;}
</style>
<path class="st0" d="M227.2,137.1H66.3v219.3c0,28,22.7,50.7,50.7,50.7h258.7c28,0,50.7-22.7,50.7-50.7v-71.7"/>
<path class="st0" d="M233.3,104.8"/>
<path class="st0" d="M76,121"/>
<path class="st0" d="M66.3,137.1v-24.7c0-14.3,11.6-25.9,25.9-25.9h73.4c6.7,0,13.2,2.7,18,7.4l43.6,43.1h51.1"/>
<path class="st0" d="M273.9,67.9"/>
<path class="st0" d="M116.5,87.7"/>
<line class="st0" x1="106.9" y1="79.1" x2="106.9" y2="91.5"/>
<path class="st0" d="M273.9,137.1h105.3c26.1,0,47.2,21.1,47.2,47.2v100.4"/>
<path class="st1" d="M155.9,262.8l66.7-66.7c18.4-18.4,48.3-18.4,66.7,0l66.7,66.7"/>
<line class="st1" x1="256" y1="182.7" x2="256" y2="393"/>
</svg>
