<?xml version="1.0" encoding="UTF-8"?>
<svg xmlns="http://www.w3.org/2000/svg" viewBox="0 0 2000 2000">
  <defs>
    <style>
      .cls-1, .cls-2 {
        fill: #fecd01;
      }

      .cls-3 {
        fill: #fef5c8;
      }

      .cls-4 {
        letter-spacing: -.01em;
      }

      .cls-5 {
        letter-spacing: -.03em;
      }

      .cls-6 {
        fill: #4a4b4b;
      }

      .cls-2 {
        font-family: NeueHaasDisplay-XThin, 'Neue Haas Grotesk Display Pro';
        font-size: 307.45px;
        font-weight: 200;
      }
    </style>
  </defs>
  <g id="Layer_5" data-name="Layer 5">
    <rect class="cls-6" width="2000" height="2000"/>
  </g>
  <g id="Layer_4" data-name="Layer 4">
    <g>
      <path class="cls-3" d="M1229.11,631.06c5.5,4.35,6.47,12.28,2.17,17.72-4.3,5.44-12.25,6.32-17.75,1.97-5.5-4.35-6.46-12.28-2.16-17.72s12.24-6.32,17.73-1.97Z"/>
      <path class="cls-1" d="M1047.63,684.13l-4.5,5.29-7.49,8.79-9.65-8.22-5.3-4.52-16.4-13.97-3.97-3.37-14.97-12.76-5.2-4.44c-2.04-2.08-4.46-4.14-7.21-6.14-11.24-8.17-28.05-15.37-47.5-19.57-3.1-.67-6.16-1.24-9.19-1.71-1.09-.17-2.18-.33-3.25-.48-11.22-1.54-21.76-1.76-30.85-.8-.63.07-1.25.14-1.86.22l-15.87-14.07c3.63-1.48,7.88-2.62,12.62-3.4,13.24-2.19,30.32-1.61,48.39,2.3,1.61.35,3.2.71,4.77,1.11l-86.55-73.75v77.83c-1.35-.48-2.69-.93-4.04-1.38h0c-4.86-1.62-9.68-3.1-14.45-4.42v-112.09l18.49,15.76,186.91,159.28,2.22,1.89,7.23,6.16,7.61,6.49Z"/>
      <path class="cls-1" d="M1310.1,678.5v.02l-55.13,7.31-2.95.39,6.4-19.49.13-.02h0c0-.15,0-.28.02-.43h0s7.15-21.78,7.15-21.78l23.66,18.12,20.72,15.87Z"/>
      <path class="cls-3" d="M1361.67,1009.32l-11.49-13.41-76.5-89.22-11.48-13.41c-.3-.35-.83-.39-1.18-.09l-13.41,11.49-21.21,18.19c-32.55,27.9-73.94,43.32-116.78,43.53-.47,0-.86-.39-.85-.86.14-6.44,1.84-12.65,4.84-18.15,3.13-5.74,7.68-10.72,13.34-14.39,8.04-5.23,16.12-11.44,23.93-18.55,20.44-18.6,34.89-39.59,41.28-57.82.05-.12.12-.24.22-.33l6.88-6.26c.54-.49,1.4-.11,1.4.62v14.62c0,.46.38.84.84.84h16.8c.46,0,.84-.38.84-.84v-139.72c0-.6-.61-1-1.16-.77-5.44,2.28-11.26,3.87-17.33,4.67-2.31.3-4.65.49-7.02.55-.65.02-1.29.03-1.94.03s-1.3,0-1.94-.03h-111.37c-.73,0-1.11.86-.62,1.4l15.56,17.09,42.11,46.26,8.02,8.81,8.64,9.49,1.47,1.61,23.26,25.54c.2.22.27.52.18.81-4.09,12.94-14.18,38.49-38.49,61.06-9.45,8.77-19.06,15.24-27.74,20.02-12.67,6.97-20.49,20.32-20.49,34.78v27.16c0,.46.38.84.84.84h41.62c7.33,0,10.71,9.12,5.14,13.9l-4,3.42c-.27.23-.65.26-.95.09-1.95-1.11-4.03-1.96-6.18-2.54-2.33-.64-4.75-.97-7.19-.97h-44.08c-.46,0-.84-.38-.84-.84v-85.07c0-.22.08-.42.24-.58l9.74-10.05,2.42-2.5,13.44-13.87c.05-.05.1-.12.13-.18,1.99-3.55,3.29-6.76,4.15-9.29,1.57-4.61,2.16-8.35,2.48-10.47.25-1.67.45-3.37.58-5.11.6-7.7.06-16-1.55-24.69-1.05-5.63-2.54-11.42-4.47-17.33-5.49-16.78-14.5-34.46-26.68-51.81-4.37-6.23-9.15-12.41-14.33-18.49-3.8-4.47-7.82-8.89-12.04-13.24-.31-.32-.32-.81-.02-1.15l27.58-30.49,11.27-12.45,37.27-41.22c.18-.19.4-.28.61-.28.48,0,.95.44.82,1.03-.38,1.71-.68,3.46-.91,5.22v.02h0c4.3,32.12,32.36,56.91,66.33,56.91,12.88,0,24.92-3.57,35.12-9.75.18-.1.31-.27.37-.46l22.98-69.99,3.29-10.01c.06-.2.05-.42-.02-.6-10.11-23.64-33.94-40.23-61.74-40.23-20.47,0-38.79,9-51.07,23.19l-.02-.02-69.7,77.07-11.68,12.91-23.84,26.35c-.31.34-.83.37-1.18.06-8-7.11-16.21-13.52-24.49-19.23,0,0,0,0-.02-.02-6.54-4.51-13.13-8.56-19.69-12.14-1.35-.74-2.68-1.45-4.03-2.14-4.32-2.24-8.62-4.27-12.88-6.09-.05-.02-.1-.04-.15-.06-1.5-.64-2.99-1.25-4.47-1.83-.52-.21-1.05-.41-1.57-.61-2.09-.8-4.17-1.54-6.24-2.24-1.71-.58-3.42-1.11-5.11-1.61-.06-.02-.12-.04-.18-.05-8.92-2.62-18.17-3.86-27.46-3.86h-29c-.17,0-.34-.05-.48-.15l-48.56-32.99-53.1-36.15-3.65-2.48-14.7-10.02-16.95-11.54-29.24-19.91-18.6-12.66-.04.05c.63,7.76,1.53,15.83,2.69,24.13.51,3.61,1.07,7.26,1.68,10.94.17,1.04.35,2.08.52,3.11,1.18,6.77,2.47,13.37,3.87,19.75,6.12,27.81,14.27,51.38,22.69,66.67.31.56-.09,1.25-.74,1.25h-80.39c-.46,0-.84.38-.84.84v2.74c0,.06,0,.12.02.18,1.03,4.84,2.41,9.75,4.14,14.73,7.44,21.54,21.16,44.09,40.09,65.87,3.25,3.74,6.65,7.46,10.2,11.14,21.59,22.43,48.66,43.69,79.96,61.77,40,23.1,81.06,37.6,118.22,43.38.66.11.94.9.48,1.39l-60.7,65.6-15.5,16.76-17.7,19.12c-.15.17-.38.27-.61.27h-182.71c-.46,0-.84.38-.84.84v16.82c0,.46.38.84.84.84h28.56c.32,0,.61.18.75.48l18.37,39.16,8.45,18.01c.14.3.43.48.75.48h53.36c.74,0,1.11.87.62,1.41l-33.64,36.35-15.81,17.09c-.49.54-.12,1.41.61,1.41h196.32c.34,0,.64-.2.77-.51l1.38-3.17,47.69-110.2c.13-.31.43-.51.77-.51h47.61c.22,0,.45-.09.6-.25l8.99-9.27c.27-.28.7-.34,1.03-.14l1.62.96,48.36,28.67,5.74,3.41c.13.08.28.12.43.12h51.73c.78,0,1.14.97.55,1.48l-10.8,9.25-13.4,11.49c-.35.3-.39.83-.09,1.18l11.49,13.41,76.5,89.22,11.48,13.41c.3.35.83.39,1.18.09l13.41-11.5,143.82-123.31,13.4-11.49c.35-.3.39-.83.09-1.18ZM1211.38,618.08c10.45,0,18.92,8.48,18.92,18.93s-8.48,18.92-18.92,18.92-18.93-8.48-18.93-18.92,8.48-18.93,18.93-18.93ZM739.69,599.21c-1.04-4.47-2.03-9.07-2.95-13.77-.15-.74.68-1.28,1.3-.86l18.95,12.91,23.67,16.11,16.91,11.51,65.89,44.85c.68.46.35,1.53-.47,1.53h-94.61c-.26,0-.51-.12-.67-.32-10.07-13.01-20.42-39.29-28.01-71.96ZM726.07,748.23c-17.38-19.02-30.23-38.56-37.56-57.1-.22-.55.19-1.15.78-1.15h239.31c6.92,0,13.81.92,20.49,2.74,0,0,1.61.43,3.98,1.14,2.38.71,5.52,1.71,8.59,2.85,10.45,3.87,21.24,9.23,31.98,15.96,13.66,8.56,27.25,19.33,40.03,32.11.76.76,1.51,1.52,2.26,2.29.51.53.13,1.42-.61,1.42h-308.64c-.23,0-.46-.1-.62-.28ZM1033.69,768.42l-5.3,5.47-74.96,77.41-2.56,2.64c-.32.34-.86.35-1.19.02-2.74-2.65-5.33-5.4-7.76-8.23-19.59-22.78-29.52-50.99-27.45-77.96.03-.44.4-.78.84-.78h117.77c.75,0,1.12.89.61,1.42ZM807.1,812.11c-22.79-13.16-43.18-28.02-60.57-43.65-.57-.52-.2-1.46.57-1.46h147.84c.48,0,.85.4.84.88-.77,17.49,2.74,35.36,10.04,52.24.18.42.35.82.54,1.23,4.92,11.06,11.47,21.68,19.54,31.51.48.58.02,1.45-.73,1.36-36.07-4.54-77.5-18.68-118.07-42.1ZM721.85,1033.41c-.74,0-1.11-.87-.62-1.41l35.14-37.96c.15-.17.38-.27.61-.27h46.03c.74,0,1.11.87.62,1.41l-36.07,38.97v-.74h-45.71ZM865.82,1089.66h-42.08c-.68,0-1.08-.78-.67-1.34l33.08-44.77c.43-.58,1.35-.38,1.49.33l8.99,44.77c.1.52-.29,1.01-.82,1.01ZM926.7,994.94l-40.98,94.72h0l-13.59-67.7-4.54-22.62c-.14-.71-1.06-.91-1.49-.33l-13.71,18.55-53.03,71.76c-.16.22-.41.34-.68.34h-55.35c-.74,0-1.11-.87-.62-1.41l87.19-94.21c.15-.17.38-.27.61-.27h95.44c.6,0,1.01.61.77,1.17ZM944.45,953.91v.02s-19.52,21.08-19.52,21.08c-.15.17-.38.27-.61.27h-77.44c-.11,0-.22.02-.31.06l-.76.3-.15-.36h.89c.11,0,.22-.02.32-.06l.68-.28,14.01-5.6,37.56-15.02,28.14-11.25,12.08-4.83h0s14.38-5.75,14.38-5.75h0s.34-.78.34-.78l.64.38,12.33-4.93c.83-.34,1.53.69.93,1.35l-6.84,7.39-12.84,13.88-3.82,4.12ZM1056.13,990.78c0,.65-.71,1.05-1.27.71l-35.14-20.84c-.47-.27-.55-.91-.18-1.3l29.29-30.23,6.4-6.6.89-.92v59.17ZM1060.87,900.15s0,0,0,0l-7.09,7.3-2.92,3.02-3.38,3.49-5.67,5.85-39.35,40.6-13.24,13.65-.92.95c-.15.16-.38.25-.6.25h-35.9c-.74,0-1.11-.87-.62-1.41l9.01-9.73,4.35-4.7,12.85-13.88,32.94-35.61c.08-.09.19-.16.31-.21l8.57-3.43h0l1.68-.68,6.43-2.57h0l12.58-5.03,16.58-6.63h0c2.53-.82,5.17-1.82,7.89-3.04.63-.28,1.25-.58,1.86-.87-1.42.33-2.84.65-4.26.98,0,0-1.78.38-4.32.81-5.25.88-10.62,1.39-16.07,1.51-8.94.22-18.09-.61-27.23-2.49h0c-13.15-2.71-26.3-7.62-38.83-14.85-.04-.02-.07-.04-.11-.06-3.49-2.02-6.86-4.17-10.08-6.45-.42-.3-.48-.91-.12-1.28l12.04-12.43,54.14-55.9,18.49-19.1,6.68-6.9h0c14.54,19.68,24.53,40,29.31,58.69,1.81,7.08,2.87,13.93,3.16,20.42.38,8.65-.64,16.65-3.13,23.71-.04.12-.11.22-.19.32l-9.72,10.02h0s-15.16,15.65-15.16,15.65ZM1325.6,997.86l-51.05-3.92c-.46-.03-.87.32-.9.78l-1.29,16.76c-.03.46.32.87.78.9l51.06,3.92c.75.05,1.05.98.48,1.47l-120.95,103.72c-.57.48-1.44.04-1.38-.71l3.84-50.07c.03-.46-.32-.87-.78-.9l-16.76-1.29c-.46-.03-.87.32-.9.78l-3.84,49.96c-.05.75-.98,1.05-1.47.48l-66.09-77.06c-.3-.35-.26-.88.09-1.18l18.49-15.86c.27-.24.66-.27.97-.08l11.23,6.66c.6.36.97,1.01.97,1.7v22.44c0,.46.38.84.84.84h16.82c.46,0,.84-.38.84-.84v-31.99c0-1.31-.69-2.51-1.81-3.18l-6.61-3.91-6.96-4.13c-.49-.29-.55-.98-.12-1.36l15.17-13.01,77.02-66.04c.57-.48,1.44-.04,1.38.71l-7.09,92.38c-.03.46-.44.81-.9.78l-60.06-4.62c-.46-.03-.87.32-.9.78l-1.3,16.76c-.03.46.32.87.78.9l60.9,4.68v.08s17.59,1.35,17.59,1.35c.46.03.87-.32.9-.78l9.22-119.96c.05-.75.98-1.05,1.47-.48l61.02,71.16c.48.57.04,1.44-.7,1.38Z"/>
    </g>
    <text class="cls-2" transform="translate(494.25 1442.72)"><tspan x="0" y="0">gu</tspan><tspan class="cls-4" x="306.53" y="0">v</tspan><tspan x="435.35" y="0">e</tspan><tspan class="cls-5" x="588.77" y="0">r</tspan><tspan x="669.93" y="0">cin</tspan></text>
  </g>
</svg>