<?xml version="1.0" encoding="UTF-8" standalone="no"?>
<svg
   viewBox="0 0 2000 2000"
   version="1.1"
   id="svg8"
   sodipodi:docname="guvercin yan.svg"
   inkscape:version="1.4.3 (0d15f75042, 2025-12-25)"
   xmlns:inkscape="http://www.inkscape.org/namespaces/inkscape"
   xmlns:sodipodi="http://sodipodi.sourceforge.net/DTD/sodipodi-0.dtd"
   xmlns="http://www.w3.org/2000/svg"
   xmlns:svg="http://www.w3.org/2000/svg">
  <sodipodi:namedview
     id="namedview8"
     pagecolor="#ffffff"
     bordercolor="#000000"
     borderopacity="0.25"
     inkscape:showpageshadow="2"
     inkscape:pageopacity="0.0"
     inkscape:pagecheckerboard="0"
     inkscape:deskcolor="#d1d1d1"
     inkscape:zoom="0.50911688"
     inkscape:cx="1007.6272"
     inkscape:cy="791.56676"
     inkscape:window-width="1900"
     inkscape:window-height="1039"
     inkscape:window-x="8"
     inkscape:window-y="29"
     inkscape:window-maximized="1"
     inkscape:current-layer="svg8" />
  <defs
     id="defs1">
    <style
       id="style1">
      .cls-1, .cls-2 {
        fill: #fecd01;
      }

      .cls-3 {
        fill: #fef5c8;
      }

      .cls-4 {
        fill: #4a4b4b;
      }

      .cls-5 {
        letter-spacing: -.01em;
      }

      .cls-6 {
        letter-spacing: -.03em;
      }

      .cls-2 {
        font-family: NeueHaasDisplay-XThin, 'Neue Haas Grotesk Display Pro';
        font-size: 336.68px;
        font-weight: 200;
      }
    </style>
  </defs>
  <g
     id="Layer_4"
     data-name="Layer 4">
    <g
       id="g8">
      <g
         id="g4">
        <path
           class="cls-3"
           d="M606.22,841.62c4.47,3.54,5.27,9.99,1.77,14.41-3.5,4.42-9.96,5.14-14.43,1.61-4.47-3.54-5.25-9.99-1.76-14.41s9.95-5.14,14.42-1.6Z"
           id="path1" />
        <path
           class="cls-1"
           d="M458.61,884.79l-3.66,4.3-6.09,7.15-7.85-6.69-4.31-3.68-13.34-11.37-3.23-2.74-12.18-10.38-4.23-3.61c-1.66-1.69-3.63-3.37-5.86-5-9.14-6.65-22.81-12.5-38.64-15.92-2.52-.54-5.01-1.01-7.47-1.39-.89-.14-1.77-.27-2.64-.39-9.13-1.25-17.7-1.43-25.1-.65-.51.06-1.01.11-1.51.18l-12.9-11.45c2.95-1.2,6.41-2.13,10.27-2.76,10.77-1.78,24.66-1.31,39.36,1.87,1.31.28,2.6.58,3.88.9l-70.4-59.99v63.3c-1.1-.39-2.19-.76-3.28-1.12h0c-3.95-1.32-7.87-2.52-11.75-3.59v-91.17l15.04,12.82,152.03,129.55,1.81,1.54,5.88,5.01,6.19,5.28Z"
           id="path2" />
        <path
           class="cls-1"
           d="M672.09,880.21v.02l-44.84,5.95-2.4.32,5.21-15.85h.11v-.02c0-.12,0-.23.01-.34h0s5.81-17.71,5.81-17.71l19.24,14.74,16.86,12.9Z"
           id="path3" />
        <path
           class="cls-3"
           d="M714.04,1149.28l-9.35-10.9-62.23-72.57-9.34-10.9c-.24-.29-.68-.32-.96-.08l-10.9,9.35-17.25,14.79c-26.47,22.69-60.14,35.24-94.99,35.41-.38,0-.7-.32-.69-.7.11-5.24,1.49-10.29,3.94-14.76,2.54-4.67,6.25-8.72,10.85-11.7,6.54-4.25,13.11-9.3,19.46-15.09,16.62-15.13,28.38-32.2,33.58-47.03.04-.1.1-.19.18-.27l5.6-5.1c.44-.4,1.14-.09,1.14.51v11.89c0,.38.31.68.68.68h13.67c.38,0,.68-.31.68-.68v-113.64c0-.49-.49-.81-.94-.63-4.43,1.85-9.16,3.14-14.09,3.79-1.88.24-3.78.4-5.71.45-.53.02-1.05.02-1.58.02s-1.06,0-1.58-.02h-90.59c-.59,0-.91.7-.51,1.14l12.65,13.9,34.25,37.62,6.53,7.16,7.03,7.71,1.19,1.31,18.92,20.78c.16.18.22.43.14.66-3.33,10.52-11.53,31.31-31.31,49.67-7.68,7.13-15.5,12.4-22.56,16.29-10.3,5.67-16.67,16.53-16.67,28.29v22.09c0,.38.31.68.68.68h33.85c5.96,0,8.71,7.42,4.18,11.3l-3.25,2.78c-.22.19-.53.21-.78.07-1.59-.9-3.28-1.59-5.03-2.07-1.89-.52-3.86-.79-5.85-.79h-35.86c-.38,0-.68-.31-.68-.68v-69.19c0-.17.07-.34.19-.48l7.92-8.17,1.97-2.03,10.93-11.28s.08-.09.11-.15c1.62-2.89,2.68-5.5,3.38-7.56,1.28-3.75,1.76-6.79,2.02-8.52.21-1.36.36-2.74.48-4.16.49-6.26.05-13.01-1.26-20.08-.85-4.58-2.06-9.29-3.64-14.09-4.46-13.65-11.8-28.03-21.7-42.14-3.56-5.06-7.45-10.1-11.65-15.04-3.09-3.64-6.36-7.23-9.79-10.77-.25-.26-.26-.66-.02-.93l22.43-24.8,9.17-10.13,30.32-33.52c.14-.16.33-.23.5-.23.39,0,.78.36.67.84-.31,1.39-.56,2.81-.74,4.25h0v.02c3.5,26.12,26.32,46.28,53.95,46.28,10.47,0,20.27-2.9,28.57-7.93.14-.08.25-.22.3-.38l18.69-56.92,2.68-8.14c.05-.16.04-.34-.02-.49-8.22-19.22-27.61-32.72-50.22-32.72-16.65,0-31.55,7.32-41.54,18.86l-.02-.02-56.69,62.68-9.5,10.5-19.39,21.43c-.25.28-.68.3-.96.05-6.51-5.78-13.19-11-19.92-15.64,0,0,0,0-.02-.01-5.32-3.67-10.68-6.96-16.01-9.88-1.09-.6-2.18-1.18-3.28-1.74-3.51-1.83-7.01-3.48-10.47-4.95-.04-.02-.08-.03-.12-.05-1.22-.52-2.43-1.01-3.64-1.49-.43-.17-.85-.33-1.28-.49-1.7-.65-3.39-1.26-5.08-1.82-1.39-.47-2.78-.91-4.16-1.31-.05-.01-.1-.03-.14-.04-7.25-2.13-14.78-3.14-22.34-3.14h-23.59c-.14,0-.28-.04-.39-.12l-39.5-26.83-43.19-29.4-2.97-2.02-11.96-8.15-13.79-9.38-23.78-16.19-15.13-10.3-.03.04c.51,6.31,1.24,12.87,2.19,19.63.41,2.93.87,5.9,1.36,8.9.14.84.28,1.69.43,2.53.96,5.51,2.01,10.88,3.15,16.06,4.98,22.62,11.6,41.79,18.46,54.23.25.46-.08,1.01-.6,1.01h-65.38c-.38,0-.68.31-.68.68v2.23c0,.05,0,.1.01.15.84,3.94,1.96,7.93,3.36,11.98,6.05,17.52,17.21,35.86,32.6,53.58,2.64,3.04,5.41,6.06,8.3,9.06,17.56,18.24,39.58,35.54,65.04,50.24,32.54,18.79,65.93,30.58,96.16,35.28.54.09.76.73.39,1.13l-49.37,53.35-12.6,13.63-14.4,15.55c-.13.14-.31.22-.5.22H126.22c-.38,0-.68.31-.68.68v13.68c0,.38.31.68.68.68h23.23c.26,0,.5.15.61.39l14.94,31.85,6.87,14.65c.11.24.35.39.61.39h43.4c.6,0,.91.71.51,1.14l-27.37,29.57-12.86,13.9c-.4.44-.09,1.14.5,1.14h159.68c.28,0,.52-.16.63-.41l1.12-2.58,38.79-89.63c.11-.25.35-.41.63-.41h38.72c.18,0,.36-.08.49-.21l7.31-7.54c.22-.23.57-.28.84-.11l1.32.78,39.34,23.32,4.67,2.78c.11.06.22.09.35.09h42.08c.63,0,.93.79.44,1.2l-8.78,7.53-10.9,9.35c-.29.24-.32.68-.08.96l9.35,10.9,62.23,72.57,9.34,10.9c.24.29.68.32.96.07l10.9-9.35,116.98-100.29,10.9-9.35c.29-.24.32-.68.08-.96ZM591.8,831.07c8.5,0,15.39,6.9,15.39,15.4s-6.9,15.39-15.39,15.39-15.4-6.9-15.4-15.39,6.9-15.4,15.4-15.4ZM208.14,815.71c-.84-3.64-1.65-7.38-2.4-11.2-.12-.6.55-1.04,1.06-.7l15.41,10.5,19.25,13.1,13.75,9.37,53.59,36.48c.56.38.29,1.24-.38,1.24h-76.96c-.21,0-.41-.09-.54-.26-8.19-10.58-16.61-31.96-22.78-58.53ZM197.06,936.92c-14.14-15.47-24.59-31.37-30.55-46.44-.18-.45.16-.93.64-.93h194.65c5.63,0,11.23.75,16.67,2.23,0,0,1.31.35,3.24.93,1.93.58,4.49,1.39,6.98,2.32,8.5,3.15,17.27,7.51,26.01,12.98,11.11,6.96,22.16,15.72,32.56,26.12.62.62,1.23,1.24,1.84,1.86.42.43.11,1.16-.49,1.16h-251.04c-.19,0-.38-.08-.51-.23ZM447.27,953.34l-4.31,4.45-60.97,62.96-2.08,2.15c-.26.28-.7.28-.97.02-2.23-2.16-4.33-4.39-6.31-6.7-15.94-18.53-24.01-41.47-22.33-63.41.03-.36.33-.63.68-.63h95.79c.61,0,.91.73.49,1.16ZM262.97,988.88c-18.54-10.7-35.12-22.79-49.27-35.51-.46-.42-.16-1.19.46-1.19h120.25c.39,0,.69.33.68.71-.63,14.23,2.23,28.76,8.17,42.49.14.34.29.67.44,1,4,9,9.33,17.64,15.89,25.63.39.48.01,1.18-.59,1.11-29.33-3.69-63.04-15.19-96.03-34.24ZM193.63,1168.88c-.6,0-.91-.71-.51-1.14l28.58-30.88c.13-.14.31-.22.5-.22h37.44c.6,0,.91.71.51,1.14l-29.33,31.7v-.6h-37.18ZM310.73,1214.63h-34.22c-.56,0-.88-.64-.54-1.09l26.91-36.41c.35-.48,1.1-.31,1.21.27l7.31,36.41c.08.43-.24.82-.67.82ZM360.25,1137.59l-33.34,77.04h0l-11.05-55.06-3.69-18.4c-.11-.58-.86-.74-1.21-.27l-11.15,15.09-43.13,58.37c-.13.17-.33.28-.55.28h-45.02c-.6,0-.91-.71-.51-1.14l70.92-76.63c.13-.14.31-.22.5-.22h77.62c.49,0,.82.5.63.95ZM374.68,1104.22h0s-15.87,17.16-15.87,17.16c-.13.14-.31.22-.5.22h-62.99c-.09,0-.18.02-.25.05l-.62.24-.12-.29h.73c.09,0,.18-.02.26-.05l.56-.23,11.39-4.55,30.55-12.22,22.89-9.15,9.83-3.93h0s11.7-4.68,11.7-4.68h0s.28-.63.28-.63l.52.31,10.03-4.01c.68-.28,1.24.56.76,1.09l-5.56,6.01-10.45,11.29-3.11,3.35ZM465.52,1134.21c0,.53-.58.85-1.03.58l-28.58-16.95c-.38-.22-.45-.74-.14-1.06l23.83-24.59,5.2-5.36.73-.75v48.13ZM469.38,1060.49s0,0,0,0l-5.76,5.94-2.38,2.46-2.75,2.84-4.61,4.76-32,33.02-10.77,11.1-.75.78c-.13.13-.31.21-.49.21h-29.2c-.6,0-.91-.71-.51-1.14l7.33-7.91,3.54-3.83,10.45-11.29,26.8-28.97c.07-.08.16-.13.25-.17l6.97-2.79h0l1.37-.55,5.23-2.09h0l10.23-4.1,13.49-5.39h0c2.06-.67,4.21-1.48,6.42-2.47.51-.23,1.02-.47,1.51-.71-1.16.27-2.31.53-3.46.8,0,0-1.45.31-3.51.66-4.27.72-8.63,1.13-13.07,1.23-7.27.18-14.71-.49-22.15-2.03h0c-10.7-2.2-21.39-6.2-31.58-12.08-.03-.02-.06-.03-.09-.05-2.84-1.64-5.58-3.39-8.2-5.25-.34-.24-.39-.74-.09-1.04l9.79-10.11,44.03-45.47,15.04-15.54,5.43-5.61h0c11.82,16.01,19.95,32.54,23.84,47.74,1.48,5.76,2.34,11.33,2.57,16.61.31,7.03-.52,13.54-2.54,19.29-.03.09-.09.18-.16.26l-7.9,8.15h0s-12.33,12.73-12.33,12.73ZM684.7,1139.96l-41.53-3.19c-.38-.03-.71.26-.73.63l-1.05,13.64c-.03.38.26.71.63.73l41.53,3.19c.61.04.86.8.39,1.19l-98.38,84.36c-.46.39-1.17.03-1.13-.58l3.13-40.73c.02-.38-.26-.71-.63-.73l-13.64-1.05c-.38-.03-.71.26-.73.63l-3.12,40.64c-.04.61-.8.86-1.19.39l-53.75-62.68c-.24-.29-.21-.72.08-.96l15.04-12.9c.22-.19.54-.22.79-.07l9.13,5.41c.49.29.79.82.79,1.38v18.26c0,.38.31.68.68.68h13.68c.38,0,.68-.31.68-.68v-26.02c0-1.06-.56-2.04-1.47-2.59l-5.38-3.18-5.66-3.36c-.4-.24-.45-.8-.1-1.11l12.34-10.58,62.65-53.72c.46-.39,1.17-.03,1.13.58l-5.77,75.14c-.02.38-.36.66-.73.63l-48.85-3.76c-.38-.03-.71.26-.73.63l-1.06,13.64c-.03.38.26.71.63.73l49.53,3.81v.06s14.31,1.1,14.31,1.1c.38.03.71-.26.73-.63l7.5-97.57c.04-.61.8-.86,1.19-.39l49.63,57.88c.39.46.03,1.17-.57,1.13Z"
           id="path4" />
      </g>
      <text
         class="cls-2"
         transform="translate(766.79 1110.01)"
         id="text8"><tspan
           x="0"
           y="0"
           id="tspan4">gu</tspan><tspan
           class="cls-5"
           x="335.67"
           y="0"
           id="tspan5">v</tspan><tspan
           x="476.74"
           y="0"
           id="tspan6">e</tspan><tspan
           class="cls-6"
           x="644.74"
           y="0"
           id="tspan7">r</tspan><tspan
           x="733.62"
           y="0"
           id="tspan8">cin</tspan></text>
    </g>
  </g>
</svg>
