<?xml version="1.0" encoding="UTF-8" standalone="no"?>
<svg
   viewBox="0 0 2000 2000"
   version="1.1"
   id="svg8"
   sodipodi:docname="guvercin yazisiz plansiz.svg"
   inkscape:version="1.4.3 (0d15f75042, 2025-12-25)"
   xmlns:inkscape="http://www.inkscape.org/namespaces/inkscape"
   xmlns:sodipodi="http://sodipodi.sourceforge.net/DTD/sodipodi-0.dtd"
   xmlns="http://www.w3.org/2000/svg"
   xmlns:svg="http://www.w3.org/2000/svg">
  <sodipodi:namedview
     id="namedview8"
     pagecolor="#ffffff"
     bordercolor="#000000"
     borderopacity="0.25"
     inkscape:showpageshadow="2"
     inkscape:pageopacity="0.0"
     inkscape:pagecheckerboard="0"
     inkscape:deskcolor="#d1d1d1"
     inkscape:zoom="0.18"
     inkscape:cx="997.22222"
     inkscape:cy="1000"
     inkscape:window-width="944"
     inkscape:window-height="1039"
     inkscape:window-x="964"
     inkscape:window-y="29"
     inkscape:window-maximized="1"
     inkscape:current-layer="Layer_4" />
  <defs
     id="defs1">
    <style
       id="style1">
      .cls-1, .cls-2 {
        fill: #fecd01;
      }

      .cls-3 {
        fill: #fef5c8;
      }

      .cls-4 {
        letter-spacing: -.01em;
      }

      .cls-5 {
        letter-spacing: -.03em;
      }

      .cls-6 {
        fill: #4a4b4b;
      }

      .cls-2 {
        font-family: NeueHaasDisplay-XThin, 'Neue Haas Grotesk Display Pro';
        font-size: 307.45px;
        font-weight: 200;
      }
    </style>
  </defs>
  <g
     id="Layer_4"
     data-name="Layer 4">
    <g
       id="g4"
       transform="translate(0.00440812,174.20441)">
      <path
         class="cls-3"
         d="m 1229.11,631.06 c 5.5,4.35 6.47,12.28 2.17,17.72 -4.3,5.44 -12.25,6.32 -17.75,1.97 -5.5,-4.35 -6.46,-12.28 -2.16,-17.72 4.3,-5.44 12.24,-6.32 17.73,-1.97 z"
         id="path1" />
      <path
         class="cls-1"
         d="m 1047.63,684.13 -4.5,5.29 -7.49,8.79 -9.65,-8.22 -5.3,-4.52 -16.4,-13.97 -3.97,-3.37 -14.97,-12.76 -5.2,-4.44 c -2.04,-2.08 -4.46,-4.14 -7.21,-6.14 -11.24,-8.17 -28.05,-15.37 -47.5,-19.57 -3.1,-0.67 -6.16,-1.24 -9.19,-1.71 -1.09,-0.17 -2.18,-0.33 -3.25,-0.48 -11.22,-1.54 -21.76,-1.76 -30.85,-0.8 -0.63,0.07 -1.25,0.14 -1.86,0.22 l -15.87,-14.07 c 3.63,-1.48 7.88,-2.62 12.62,-3.4 13.24,-2.19 30.32,-1.61 48.39,2.3 1.61,0.35 3.2,0.71 4.77,1.11 l -86.55,-73.75 v 77.83 c -1.35,-0.48 -2.69,-0.93 -4.04,-1.38 v 0 c -4.86,-1.62 -9.68,-3.1 -14.45,-4.42 V 494.58 l 18.49,15.76 186.91,159.28 2.22,1.89 7.23,6.16 7.61,6.49 z"
         id="path2" />
      <path
         class="cls-1"
         d="m 1310.1,678.5 v 0.02 l -55.13,7.31 -2.95,0.39 6.4,-19.49 0.13,-0.02 v 0 c 0,-0.15 0,-0.28 0.02,-0.43 v 0 c 0,0 7.15,-21.78 7.15,-21.78 l 23.66,18.12 20.72,15.87 z"
         id="path3" />
      <path
         class="cls-3"
         d="m 1361.67,1009.32 -11.49,-13.41 -76.5,-89.22 -11.48,-13.41 c -0.3,-0.35 -0.83,-0.39 -1.18,-0.09 l -13.41,11.49 -21.21,18.19 c -32.55,27.9 -73.94,43.32 -116.78,43.53 -0.47,0 -0.86,-0.39 -0.85,-0.86 0.14,-6.44 1.84,-12.65 4.84,-18.15 3.13,-5.74 7.68,-10.72 13.34,-14.39 8.04,-5.23 16.12,-11.44 23.93,-18.55 20.44,-18.6 34.89,-39.59 41.28,-57.82 0.05,-0.12 0.12,-0.24 0.22,-0.33 l 6.88,-6.26 c 0.54,-0.49 1.4,-0.11 1.4,0.62 v 14.62 c 0,0.46 0.38,0.84 0.84,0.84 h 16.8 c 0.46,0 0.84,-0.38 0.84,-0.84 V 725.56 c 0,-0.6 -0.61,-1 -1.16,-0.77 -5.44,2.28 -11.26,3.87 -17.33,4.67 -2.31,0.3 -4.65,0.49 -7.02,0.55 -0.65,0.02 -1.29,0.03 -1.94,0.03 -0.65,0 -1.3,0 -1.94,-0.03 h -111.37 c -0.73,0 -1.11,0.86 -0.62,1.4 l 15.56,17.09 42.11,46.26 8.02,8.81 8.64,9.49 1.47,1.61 23.26,25.54 c 0.2,0.22 0.27,0.52 0.18,0.81 -4.09,12.94 -14.18,38.49 -38.49,61.06 -9.45,8.77 -19.06,15.24 -27.74,20.02 -12.67,6.97 -20.49,20.32 -20.49,34.78 v 27.16 c 0,0.46 0.38,0.84 0.84,0.84 h 41.62 c 7.33,0 10.71,9.12 5.14,13.9 l -4,3.42 c -0.27,0.23 -0.65,0.26 -0.95,0.09 -1.95,-1.11 -4.03,-1.96 -6.18,-2.54 -2.33,-0.64 -4.75,-0.97 -7.19,-0.97 h -44.08 c -0.46,0 -0.84,-0.38 -0.84,-0.84 v -85.07 c 0,-0.22 0.08,-0.42 0.24,-0.58 l 9.74,-10.05 2.42,-2.5 13.44,-13.87 c 0.05,-0.05 0.1,-0.12 0.13,-0.18 1.99,-3.55 3.29,-6.76 4.15,-9.29 1.57,-4.61 2.16,-8.35 2.48,-10.47 0.25,-1.67 0.45,-3.37 0.58,-5.11 0.6,-7.7 0.06,-16 -1.55,-24.69 -1.05,-5.63 -2.54,-11.42 -4.47,-17.33 -5.49,-16.78 -14.5,-34.46 -26.68,-51.81 -4.37,-6.23 -9.15,-12.41 -14.33,-18.49 -3.8,-4.47 -7.82,-8.89 -12.04,-13.24 -0.31,-0.32 -0.32,-0.81 -0.02,-1.15 l 27.58,-30.49 11.27,-12.45 37.27,-41.22 c 0.18,-0.19 0.4,-0.28 0.61,-0.28 0.48,0 0.95,0.44 0.82,1.03 -0.38,1.71 -0.68,3.46 -0.91,5.22 v 0.02 0 c 4.3,32.12 32.36,56.91 66.33,56.91 12.88,0 24.92,-3.57 35.12,-9.75 0.18,-0.1 0.31,-0.27 0.37,-0.46 l 22.98,-69.99 3.29,-10.01 c 0.06,-0.2 0.05,-0.42 -0.02,-0.6 -10.11,-23.64 -33.94,-40.23 -61.74,-40.23 -20.47,0 -38.79,9 -51.07,23.19 l -0.02,-0.02 -69.7,77.07 -11.68,12.91 -23.84,26.35 c -0.31,0.34 -0.83,0.37 -1.18,0.06 -8,-7.11 -16.21,-13.52 -24.49,-19.23 0,0 0,0 -0.02,-0.02 -6.54,-4.51 -13.13,-8.56 -19.69,-12.14 -1.35,-0.74 -2.68,-1.45 -4.03,-2.14 -4.32,-2.24 -8.62,-4.27 -12.88,-6.09 -0.05,-0.02 -0.1,-0.04 -0.15,-0.06 -1.5,-0.64 -2.99,-1.25 -4.47,-1.83 -0.52,-0.21 -1.05,-0.41 -1.57,-0.61 -2.09,-0.8 -4.17,-1.54 -6.24,-2.24 -1.71,-0.58 -3.42,-1.11 -5.11,-1.61 -0.06,-0.02 -0.12,-0.04 -0.18,-0.05 -8.92,-2.62 -18.17,-3.86 -27.46,-3.86 h -29 c -0.17,0 -0.34,-0.05 -0.48,-0.15 l -48.56,-32.99 -53.1,-36.15 -3.65,-2.48 -14.7,-10.02 -16.95,-11.54 -29.24,-19.91 -18.6,-12.66 -0.04,0.05 c 0.63,7.76 1.53,15.83 2.69,24.13 0.51,3.61 1.07,7.26 1.68,10.94 0.17,1.04 0.35,2.08 0.52,3.11 1.18,6.77 2.47,13.37 3.87,19.75 6.12,27.81 14.27,51.38 22.69,66.67 0.31,0.56 -0.09,1.25 -0.74,1.25 h -80.39 c -0.46,0 -0.84,0.38 -0.84,0.84 v 2.74 c 0,0.06 0,0.12 0.02,0.18 1.03,4.84 2.41,9.75 4.14,14.73 7.44,21.54 21.16,44.09 40.09,65.87 3.25,3.74 6.65,7.46 10.2,11.14 21.59,22.43 48.66,43.69 79.96,61.77 40,23.1 81.06,37.6 118.22,43.38 0.66,0.11 0.94,0.9 0.48,1.39 l -60.7,65.6 -15.5,16.76 -17.7,19.12 c -0.15,0.17 -0.38,0.27 -0.61,0.27 H 638.97 c -0.46,0 -0.84,0.38 -0.84,0.84 v 16.82 c 0,0.46 0.38,0.84 0.84,0.84 h 28.56 c 0.32,0 0.61,0.18 0.75,0.48 l 18.37,39.16 8.45,18.01 c 0.14,0.3 0.43,0.48 0.75,0.48 h 53.36 c 0.74,0 1.11,0.87 0.62,1.41 l -33.64,36.35 -15.81,17.09 c -0.49,0.54 -0.12,1.41 0.61,1.41 h 196.32 c 0.34,0 0.64,-0.2 0.77,-0.51 l 1.38,-3.17 47.69,-110.2 c 0.13,-0.31 0.43,-0.51 0.77,-0.51 h 47.61 c 0.22,0 0.45,-0.09 0.6,-0.25 l 8.99,-9.27 c 0.27,-0.28 0.7,-0.34 1.03,-0.14 l 1.62,0.96 48.36,28.67 5.74,3.41 c 0.13,0.08 0.28,0.12 0.43,0.12 h 51.73 c 0.78,0 1.14,0.97 0.55,1.48 l -10.8,9.25 -13.4,11.49 c -0.35,0.3 -0.39,0.83 -0.09,1.18 l 11.49,13.41 76.5,89.22 11.48,13.41 c 0.3,0.35 0.83,0.39 1.18,0.09 l 13.41,-11.5 143.82,-123.31 13.4,-11.49 c 0.35,-0.3 0.39,-0.83 0.09,-1.18 z M 1211.38,618.08 c 10.45,0 18.92,8.48 18.92,18.93 0,10.45 -8.48,18.92 -18.92,18.92 -10.44,0 -18.93,-8.48 -18.93,-18.92 0,-10.44 8.48,-18.93 18.93,-18.93 z M 739.69,599.21 c -1.04,-4.47 -2.03,-9.07 -2.95,-13.77 -0.15,-0.74 0.68,-1.28 1.3,-0.86 l 18.95,12.91 23.67,16.11 16.91,11.51 65.89,44.85 c 0.68,0.46 0.35,1.53 -0.47,1.53 h -94.61 c -0.26,0 -0.51,-0.12 -0.67,-0.32 -10.07,-13.01 -20.42,-39.29 -28.01,-71.96 z m -13.62,149.02 c -17.38,-19.02 -30.23,-38.56 -37.56,-57.1 -0.22,-0.55 0.19,-1.15 0.78,-1.15 H 928.6 c 6.92,0 13.81,0.92 20.49,2.74 0,0 1.61,0.43 3.98,1.14 2.38,0.71 5.52,1.71 8.59,2.85 10.45,3.87 21.24,9.23 31.98,15.96 13.66,8.56 27.25,19.33 40.03,32.11 0.76,0.76 1.51,1.52 2.26,2.29 0.51,0.53 0.13,1.42 -0.61,1.42 H 726.68 c -0.23,0 -0.46,-0.1 -0.62,-0.28 z m 307.62,20.19 -5.3,5.47 -74.96,77.41 -2.56,2.64 c -0.32,0.34 -0.86,0.35 -1.19,0.02 -2.74,-2.65 -5.33,-5.4 -7.76,-8.23 -19.59,-22.78 -29.52,-50.99 -27.45,-77.96 0.03,-0.44 0.4,-0.78 0.84,-0.78 h 117.77 c 0.75,0 1.12,0.89 0.61,1.42 z M 807.1,812.11 c -22.79,-13.16 -43.18,-28.02 -60.57,-43.65 -0.57,-0.52 -0.2,-1.46 0.57,-1.46 h 147.84 c 0.48,0 0.85,0.4 0.84,0.88 -0.77,17.49 2.74,35.36 10.04,52.24 0.18,0.42 0.35,0.82 0.54,1.23 4.92,11.06 11.47,21.68 19.54,31.51 0.48,0.58 0.02,1.45 -0.73,1.36 -36.07,-4.54 -77.5,-18.68 -118.07,-42.1 z m -85.25,221.3 c -0.74,0 -1.11,-0.87 -0.62,-1.41 l 35.14,-37.96 c 0.15,-0.17 0.38,-0.27 0.61,-0.27 h 46.03 c 0.74,0 1.11,0.87 0.62,1.41 l -36.07,38.97 v -0.74 z m 143.97,56.25 h -42.08 c -0.68,0 -1.08,-0.78 -0.67,-1.34 l 33.08,-44.77 c 0.43,-0.58 1.35,-0.38 1.49,0.33 l 8.99,44.77 c 0.1,0.52 -0.29,1.01 -0.82,1.01 z m 60.88,-94.72 -40.98,94.72 v 0 l -13.59,-67.7 -4.54,-22.62 c -0.14,-0.71 -1.06,-0.91 -1.49,-0.33 l -13.71,18.55 -53.03,71.76 c -0.16,0.22 -0.41,0.34 -0.68,0.34 h -55.35 c -0.74,0 -1.11,-0.87 -0.62,-1.41 l 87.19,-94.21 c 0.15,-0.17 0.38,-0.27 0.61,-0.27 h 95.44 c 0.6,0 1.01,0.61 0.77,1.17 z m 17.75,-41.03 v 0.02 c 0,0 -19.52,21.08 -19.52,21.08 -0.15,0.17 -0.38,0.27 -0.61,0.27 h -77.44 c -0.11,0 -0.22,0.02 -0.31,0.06 l -0.76,0.3 -0.15,-0.36 h 0.89 c 0.11,0 0.22,-0.02 0.32,-0.06 l 0.68,-0.28 14.01,-5.6 37.56,-15.02 28.14,-11.25 12.08,-4.83 v 0 c 0,0 14.38,-5.75 14.38,-5.75 v 0 c 0,0 0.34,-0.78 0.34,-0.78 l 0.64,0.38 12.33,-4.93 c 0.83,-0.34 1.53,0.69 0.93,1.35 l -6.84,7.39 -12.84,13.88 -3.82,4.12 z m 111.68,36.87 c 0,0.65 -0.71,1.05 -1.27,0.71 l -35.14,-20.84 c -0.47,-0.27 -0.55,-0.91 -0.18,-1.3 l 29.29,-30.23 6.4,-6.6 0.89,-0.92 v 59.17 z m 4.74,-90.63 c 0,0 0,0 0,0 l -7.09,7.3 -2.92,3.02 -3.38,3.49 -5.67,5.85 -39.35,40.6 -13.24,13.65 -0.92,0.95 c -0.15,0.16 -0.38,0.25 -0.6,0.25 h -35.9 c -0.74,0 -1.11,-0.87 -0.62,-1.41 l 9.01,-9.73 4.35,-4.7 12.85,-13.88 32.94,-35.61 c 0.08,-0.09 0.19,-0.16 0.31,-0.21 l 8.57,-3.43 v 0 l 1.68,-0.68 6.43,-2.57 v 0 l 12.58,-5.03 16.58,-6.63 v 0 c 2.53,-0.82 5.17,-1.82 7.89,-3.04 0.63,-0.28 1.25,-0.58 1.86,-0.87 -1.42,0.33 -2.84,0.65 -4.26,0.98 0,0 -1.78,0.38 -4.32,0.81 -5.25,0.88 -10.62,1.39 -16.07,1.51 -8.94,0.22 -18.09,-0.61 -27.23,-2.49 v 0 c -13.15,-2.71 -26.3,-7.62 -38.83,-14.85 -0.04,-0.02 -0.07,-0.04 -0.11,-0.06 -3.49,-2.02 -6.86,-4.17 -10.08,-6.45 -0.42,-0.3 -0.48,-0.91 -0.12,-1.28 l 12.04,-12.43 54.14,-55.9 18.49,-19.1 6.68,-6.9 v 0 c 14.54,19.68 24.53,40 29.31,58.69 1.81,7.08 2.87,13.93 3.16,20.42 0.38,8.65 -0.64,16.65 -3.13,23.71 -0.04,0.12 -0.11,0.22 -0.19,0.32 l -9.72,10.02 v 0 c 0,0 -15.16,15.65 -15.16,15.65 z m 264.73,97.71 -51.05,-3.92 c -0.46,-0.03 -0.87,0.32 -0.9,0.78 l -1.29,16.76 c -0.03,0.46 0.32,0.87 0.78,0.9 l 51.06,3.92 c 0.75,0.05 1.05,0.98 0.48,1.47 l -120.95,103.72 c -0.57,0.48 -1.44,0.04 -1.38,-0.71 l 3.84,-50.07 c 0.03,-0.46 -0.32,-0.87 -0.78,-0.9 l -16.76,-1.29 c -0.46,-0.03 -0.87,0.32 -0.9,0.78 l -3.84,49.96 c -0.05,0.75 -0.98,1.05 -1.47,0.48 l -66.09,-77.06 c -0.3,-0.35 -0.26,-0.88 0.09,-1.18 l 18.49,-15.86 c 0.27,-0.24 0.66,-0.27 0.97,-0.08 l 11.23,6.66 c 0.6,0.36 0.97,1.01 0.97,1.7 v 22.44 c 0,0.46 0.38,0.84 0.84,0.84 h 16.82 c 0.46,0 0.84,-0.38 0.84,-0.84 v -31.99 c 0,-1.31 -0.69,-2.51 -1.81,-3.18 l -6.61,-3.91 -6.96,-4.13 c -0.49,-0.29 -0.55,-0.98 -0.12,-1.36 l 15.17,-13.01 77.02,-66.04 c 0.57,-0.48 1.44,-0.04 1.38,0.71 l -7.09,92.38 c -0.03,0.46 -0.44,0.81 -0.9,0.78 l -60.06,-4.62 c -0.46,-0.03 -0.87,0.32 -0.9,0.78 l -1.3,16.76 c -0.03,0.46 0.32,0.87 0.78,0.9 l 60.9,4.68 v 0.08 c 0,0 17.59,1.35 17.59,1.35 0.46,0.03 0.87,-0.32 0.9,-0.78 l 9.22,-119.96 c 0.05,-0.75 0.98,-1.05 1.47,-0.48 l 61.02,71.16 c 0.48,0.57 0.04,1.44 -0.7,1.38 z"
         id="path4" />
    </g>
    <text
       class="cls-2"
       transform="translate(494.25,1442.72)"
       id="text8" />
  </g>
</svg>
