<?xml version="1.0" encoding="utf-8"?>
<!-- Generator: Adobe Illustrator 26.0.0, SVG Export Plug-In . SVG Version: 6.00 Build 0)  -->
<svg version="1.1" id="Layer_1" xmlns="http://www.w3.org/2000/svg" xmlns:xlink="http://www.w3.org/1999/xlink" x="0px" y="0px"
	 viewBox="0 0 512 512" style="enable-background:new 0 0 512 512;" xml:space="preserve">
<style type="text/css">
	.st0{fill:#FFFFFF;stroke:#000000;stroke-width:30;stroke-miterlimit:10;}
	.st1{fill:none;}
	.st2{fill:none;stroke:#000000;stroke-width:30;stroke-linecap:square;stroke-miterlimit:10;}
	.st3{fill:none;stroke:#000000;stroke-width:30;stroke-linecap:round;stroke-miterlimit:10;}
</style>
<path class="st0" d="M376.5,226.8"/>
<path class="st0" d="M376.5,141.5"/>
<g>
	<path class="st1" d="M376.5,234v145.3c0,28-22.7,50.7-50.7,50.7H179.2c-28,0-50.7-22.7-50.7-50.7V132.7c0-28,22.7-50.7,50.7-50.7
		h146.6c28,0,50.7,22.7,50.7,50.7v8.8"/>
	<path d="M325.8,445H179.2c-36.2,0-65.7-29.5-65.7-65.7V132.7c0-36.2,29.5-65.7,65.7-65.7h146.6c36.2,0,65.7,29.5,65.7,65.7v8.8h-30
		v-8.8c0-19.7-16-35.7-35.7-35.7H179.2c-19.7,0-35.7,16-35.7,35.7v246.6c0,19.7,16,35.7,35.7,35.7h146.6c19.7,0,35.7-16,35.7-35.7
		V234h30v145.3C391.5,415.5,362,445,325.8,445z"/>
</g>
<line class="st2" x1="308.8" y1="256" x2="434.5" y2="130.3"/>
<line class="st3" x1="257.7" y1="307.1" x2="308.8" y2="256"/>
<polyline points="391.5,234 391.5,204 361.5,234 "/>
<polyline points="391.5,141.3 361.5,171.3 361.5,141.3 "/>
<line class="st3" x1="165" y1="130" x2="340" y2="130"/>
<line class="st3" x1="165" y1="190" x2="322.3" y2="190"/>
<line class="st3" x1="165" y1="250" x2="259.8" y2="250"/>
<line class="st3" x1="165" y1="310" x2="221.2" y2="310"/>
<line class="st3" x1="165" y1="370" x2="340" y2="370"/>
<line class="st3" x1="299.6" y1="310" x2="342.8" y2="310"/>
</svg>
