<?xml version="1.0" encoding="utf-8"?>
<!-- Generator: Adobe Illustrator 26.0.0, SVG Export Plug-In . SVG Version: 6.00 Build 0)  -->
<svg version="1.1" id="Layer_1" xmlns="http://www.w3.org/2000/svg" xmlns:xlink="http://www.w3.org/1999/xlink" x="0px" y="0px"
	 viewBox="0 0 512 512" style="enable-background:new 0 0 512 512;" xml:space="preserve">
<style type="text/css">
	.st0{fill:none;stroke:#000000;stroke-width:30;stroke-miterlimit:10;}
</style>
<path class="st0" d="M236.9,137.2H76v219.3c0,28,22.7,50.7,50.7,50.7h258.7c28,0,50.7-22.7,50.7-50.7v-71.7"/>
<path class="st0" d="M243,104.9"/>
<path class="st0" d="M85.7,121.1"/>
<path class="st0" d="M76,137.2v-24.7c0-14.3,11.6-25.9,25.9-25.9h73.4c6.7,0,13.2,2.7,18,7.4l43.6,43.1H288"/>
<path class="st0" d="M283.5,67.9"/>
<path class="st0" d="M126.2,87.7"/>
<line class="st0" x1="116.5" y1="79.2" x2="116.5" y2="91.5"/>
<path class="st0" d="M283.5,137.2h105.3c26.1,0,47.2,21.1,47.2,47.2v100.4"/>
</svg>
